<svg xmlns="http://www.w3.org/2000/svg" xmlns:xlink="http://www.w3.org/1999/xlink" version="1.1" id="Graphics" x="0px" y="0px" viewBox="0 0 500 278.7" style="enable-background:new 0 0 500 278.7;" xml:space="preserve">
<style type="text/css">
	.st0{fill:#F0F1F3;}
	.st1{fill:#00C671;}
	.st2{opacity:0.2;}
	.st3{fill:#191C3C;}
	.st4{opacity:8.000000e-02;fill:#F5F7F9;enable-background:new    ;}
	.st5{fill:#1E2022;}
	.st6{fill:#D4DBE3;}
	.st7{fill:#00C9A7;}
	.st8{fill:none;stroke:#191C3C;stroke-width:0.4145;stroke-miterlimit:10;}
	.st9{fill:#7783A0;}
	.st10{fill:#3A3C4E;}
	.st11{fill:#FEC55E;}
	.st12{fill:#DB3F32;}
	.st13{opacity:0.3;fill:#191C3C;enable-background:new    ;}
	.st14{fill:#DE4437;}
	.st15{fill:url(#SVGID_1_);}
	.st16{fill:url(#SVGID_2_);}
	.st17{fill:url(#SVGID_3_);}
	.st18{fill:#FFFFFF;}
	.st19{opacity:0.3;}
	.st20{fill:#41446B;}
	.st21{opacity:0.1;fill:#191C3C;enable-background:new    ;}
	.st22{fill:#D8ED96;}
	.st23{fill:#D4DEE8;}
	.st24{fill:url(#SVGID_4_);}
	.st25{fill:#D1D3DB;}
	.st26{fill:#377DFF;}
	.st27{fill:#2D1582;}
	.st28{fill:#474963;}
	.st29{fill:#4D5068;}
	.st30{opacity:0.17;fill:#191C3C;enable-background:new    ;}
	.st31{opacity:0.11;}
	.st32{fill:#DAE1E9;}
	.st33{fill:none;stroke:#DAE1E9;stroke-width:0.5;stroke-miterlimit:10;}
	.st34{fill:none;stroke:#DAE1E9;stroke-width:1.5;stroke-miterlimit:10;}
	.st35{fill:#E4EDF7;}
	.st36{opacity:0.3;fill:#DAE1E9;enable-background:new    ;}
	.st37{fill:none;stroke:#DAE1E9;stroke-width:0.4899;stroke-miterlimit:10;}
	.st38{opacity:0.2;fill:#AAB2BA;enable-background:new    ;}
	.st39{fill:#FED17E;}
	.st40{fill:#E0A546;}
	.st41{fill:#19A0FF;}
	.st42{fill:#DD9C3E;}
	.st43{fill:#BF9447;}
	.st44{opacity:0.1;fill:#3A3C4E;enable-background:new    ;}
	.st45{opacity:0.2;fill:#3A3C4E;enable-background:new    ;}
</style>
<rect class="st0" width="500" height="278.7"/>

<path class="st6" d="M0,228.8c0,0,64.5-37.3,147.5-17.3S275,191,305,173.5s128.5-93.2,195-45.6v150.7H0V228.8z"/>



<path class="st23" d="M0,218.9c0,0,104.3-64.7,176.8-36.9s170.4,15.7,170.4,15.7v81H0V218.9z"/>
<linearGradient id="SVGID_4_" gradientUnits="userSpaceOnUse" x1="0" y1="1006.3311" x2="500" y2="1006.3311" gradientTransform="matrix(1 0 0 1 0 -800)">
	<stop offset="5.250566e-07" style="stop-color:#DAE1E9"/>
	<stop offset="1" style="stop-color:#F0F1F3"/>
</linearGradient>
<path class="st24" d="M0,170.5c0,0,66.6,50.7,193.5,5c28.2-10.2,56.1-21.2,84.4-31.2c17.5-6.2,36.2-10.7,54.9-10.2  c18.4,0.6,36.4,5.7,53.3,12.9c9.6,4.2,18.9,9.1,27.9,14.4c8.6,5.1,16.7,11.2,26,15.1c8.3,3.4,17,5.5,25.9,6.6  c6.5,0.8,13.1,1.2,19.6,1.4c4.8,0.1,9.7,0.1,14.5,0.1v94H0V170.5z"/>


<g id="Clouds">
	<path id="XMLID_198_" class="st18" d="M113.3,71.4L113.3,71.4c-0.6-1.7-2.2-3-4.1-3c-0.8,0-1.6,0.2-2.2,0.7   c-0.4-2.7-2.7-4.8-5.6-4.8c-2.5,0-4.7,1.7-5.4,4c-0.3-0.1-0.7-0.1-1-0.1c-1.9,0-3.5,1.4-3.8,3.3h-0.6c-1.6,0-2.9,1.3-2.9,2.9v0.2   c0,1.6,1.3,2.9,2.9,2.9h22.7c1.6,0,2.9-1.3,2.9-2.9v-0.2C116.2,72.7,114.9,71.4,113.3,71.4z"/>
	<path id="XMLID_181_" class="st18" d="M59.5,56L59.5,56c-0.4-1.2-1.6-2.1-2.9-2.1c-0.6,0-1.1,0.2-1.6,0.5c-0.3-1.9-2-3.4-4-3.4   c-1.8,0-3.3,1.2-3.8,2.8c-0.2-0.1-0.5-0.1-0.7-0.1c-1.4,0-2.5,1-2.7,2.3h-0.5c-1.1,0-2.1,0.9-2.1,2.1v0.2c0,1.1,0.9,2.1,2.1,2.1   h16.2c1.1,0,2.1-0.9,2.1-2.1v-0.2C61.5,56.9,60.6,56,59.5,56z"/>
	<path id="XMLID_190_" class="st18" d="M143.1,49L143.1,49c-0.5-1.5-1.9-2.6-3.5-2.6c-0.7,0-1.4,0.2-1.9,0.6   c-0.4-2.4-2.4-4.2-4.8-4.2c-2.2,0-4.1,1.5-4.7,3.5c-0.3-0.1-0.6-0.1-0.9-0.1c-1.7,0-3.1,1.2-3.3,2.8h-0.5c-1.4,0-2.5,1.1-2.5,2.5   v0.2c0,1.4,1.1,2.5,2.5,2.5h19.8c1.4,0,2.5-1.1,2.5-2.5v-0.2C145.6,50.1,144.5,49,143.1,49z"/>
	<path id="XMLID_178_" class="st18" d="M143.4,84.5L143.4,84.5c-0.3-0.8-1-1.3-1.8-1.3c-0.4,0-0.7,0.1-1,0.3   c-0.2-1.2-1.2-2.2-2.5-2.2c-1.1,0-2.1,0.8-2.4,1.8c-0.1,0-0.3-0.1-0.5-0.1c-0.9,0-1.6,0.6-1.7,1.5h-0.3c-0.7,0-1.3,0.6-1.3,1.3v0.1   c0,0.7,0.6,1.3,1.3,1.3h10.3c0.7,0,1.3-0.6,1.3-1.3v-0.1C144.7,85.1,144.1,84.5,143.4,84.5z"/>
	<g id="XMLID_141_">
		
		<path id="XMLID_150_" class="st18" d="M362,38.9h-0.2c-0.7-2.3-2.8-4.1-5.4-4.1c-1.1,0-2.2,0.3-3,0.9c-0.6-3.7-3.8-6.5-7.6-6.5    c-3.5,0-6.4,2.3-7.4,5.4c-0.4-0.1-0.9-0.2-1.4-0.2c-2.6,0-4.8,1.9-5.2,4.5H331c-2.2,0-3.9,1.8-3.9,3.9v0.3c0,2.2,1.8,3.9,3.9,3.9    h31c2.2,0,3.9-1.8,3.9-3.9v-0.3C365.9,40.7,364.1,38.9,362,38.9z"/>
	</g>
</g>






</svg>