<?xml version="1.0" standalone="no"?>
<!DOCTYPE svg PUBLIC "-//W3C//DTD SVG 20010904//EN"
 "http://www.w3.org/TR/2001/REC-SVG-20010904/DTD/svg10.dtd">
<svg version="1.0" xmlns="http://www.w3.org/2000/svg"
 width="200.000000pt" height="45.000000pt" viewBox="0 0 200.000000 45.000000"
 preserveAspectRatio="xMidYMid meet">
<metadata>
Created by potrace 1.10, written by Peter Selinger 2001-2011
</metadata>
<g transform="translate(0.000000,45.000000) scale(0.050000,-0.050000)"
fill="#ffffff" stroke="none">
<path d="M3123 873 c-34 -41 -6 -96 45 -89 30 4 42 20 42 56 0 57 -51 77 -87
33z"/>
<path d="M7 608 c-9 -21 29 -73 115 -160 l127 -128 -129 -130 c-122 -123 -127
-132 -94 -164 32 -33 41 -28 164 94 l130 129 128 -127 c87 -86 139 -124 160
-115 55 20 36 58 -92 187 l-125 126 127 128 c86 87 124 139 115 160 -21 57
-67 34 -190 -93 l-121 -125 -127 125 c-130 129 -168 148 -188 93z"/>
<path d="M938 595 c-212 -144 -212 -419 1 -543 85 -50 236 -53 308 -6 63 41
73 42 73 5 0 -16 9 -34 21 -42 103 -63 113 367 11 500 -102 133 -286 171 -414
86z m265 -86 c34 -18 73 -62 90 -103 102 -245 -261 -422 -383 -187 -102 198
95 392 293 290z"/>
<path d="M1564 325 c6 -300 8 -315 46 -315 37 0 41 17 50 207 14 284 150 407
321 289 88 -61 98 -88 98 -279 1 -200 28 -259 93 -205 44 36 31 358 -18 451
-77 146 -286 211 -421 131 -68 -39 -69 -40 -79 -2 -6 22 -28 38 -53 38 -41 0
-42 -6 -37 -315z"/>
<path d="M2339 615 c-10 -175 3 -585 19 -601 51 -51 82 27 82 210 0 178 1 181
68 248 168 168 352 44 352 -238 0 -186 10 -234 51 -234 76 0 76 387 0 502 -83
126 -268 176 -400 107 -54 -28 -62 -28 -83 0 -27 37 -87 41 -89 6z"/>
<path d="M3120 331 c0 -316 23 -401 82 -309 44 68 11 608 -37 614 l-45 7 0
-312z"/>
<path d="M3549 612 c-82 -36 -164 -138 -180 -223 -51 -270 240 -478 468 -335
43 27 49 26 77 -13 62 -89 91 -16 82 203 -12 321 -200 475 -447 368z m232
-102 c152 -79 152 -301 0 -380 -236 -122 -442 233 -215 371 77 47 136 49 215
9z"/>
</g>
</svg>
