<svg xmlns="http://www.w3.org/2000/svg" xmlns:xlink="http://www.w3.org/1999/xlink" version="1.1" x="0px" y="0px" viewBox="0 0 1000 1000" enable-background="new 0 0 1000 1000" xml:space="preserve">
<metadata> Svg Vector Icons : http://www.onlinewebfonts.com/icon </metadata>
<g><path fill="#666" d="M500,317.9l433.9,433.9c6.1,6.3,14.4,9.6,23.3,9.6c8.8,0,17.1-3.4,23.3-9.6c6.1-6.1,9.6-14.4,9.6-23.3c0-8.8-3.4-17.1-9.6-23.3L523.3,248.2c-12.8-12.8-33.7-12.8-46.5,0L19.6,705.3c-6.1,6.1-9.4,14.4-9.6,23.3c0,0.1,0,0.3,0,0.4c0,5.8,3.4,14.3,3.4,14.3c1.6,3.1,3.6,6,6.1,8.6c12.8,12.8,33.7,12.8,46.5,0L500,317.9z"/></g>
</svg>