<svg xmlns="http://www.w3.org/2000/svg" width="81" height="42" viewBox="0 0 81 42"><g fill="#E9F0F4"><polygon points="30.318 71.095 30.318 33.125 28.74 33.125 28.74 72.866 69.654 68.132 69.654 28.574 68.076 28.574 68.076 66.726"></polygon><polygon points="29.62 33.909 68.956 29.358 68.774 27.79 29.439 32.341"></polygon><polygon points="23.6 18.46 47.888 15.65 47.706 14.083 23.419 16.893"></polygon><polygon points="9.252 57.897 9.252 19.472 7.674 19.472 7.674 58.755 30.318 73.432 30.318 33.125 28.74 33.125 28.74 70.529"></polygon><polygon points="8.034 20.134 29.1 33.787 29.959 32.463 8.892 18.81"></polygon><polygon points="78.349 11.643 68.193 28.107 69.536 28.935 80.649 10.921 55.95 .198 47.126 14.451 48.468 15.282 56.573 2.189"></polygon><polygon points="47.368 15.529 68.436 29.183 69.294 27.859 48.226 14.204"></polygon><polygon points="46.985 14.867 46.985 31.012 48.563 31.012 48.563 14.867"></polygon><polygon points="21.142 14.138 29.353 33.372 30.804 32.753 22.36 12.971 .33 2.432 7.737 19.781 9.188 19.162 3.425 5.662"></polygon></g></svg>