<svg xmlns="http://www.w3.org/2000/svg" viewBox="0 0 60.900003 42" width="60.9" height="42"><path d="M51.45 23.1A9.41 9.41 0 0 0 42 32.55C42 37.8 46.2 42 51.45 42c5.25 0 9.45-4.2 9.45-9.45 0-5.25-4.2-9.45-9.45-9.45zm0 16.8c-3.99 0-7.35-3.36-7.35-7.35 0-3.99 3.36-7.35 7.35-7.35 3.99 0 7.35 3.36 7.35 7.35 0 3.99-3.36 7.35-7.35 7.35z" fill="#ccc"/><path d="M55.65 31.5H52.5v-3.15c0-.63-.42-1.05-1.05-1.05-.63 0-1.05.42-1.05 1.05v3.15h-3.15c-.63 0-1.05.42-1.05 1.05 0 .63.42 1.05 1.05 1.05h3.15v3.15c0 .63.42 1.05 1.05 1.05.63 0 1.05-.42 1.05-1.05V33.6h3.15c.63 0 1.05-.42 1.05-1.05 0-.63-.42-1.05-1.05-1.05z" fill="#ccc"/><path d="M54.6 0H4.2C1.89 0 0 1.89 0 4.2v29.4c0 2.31 1.89 4.2 4.2 4.2h30.45c.63 0 1.05-.42 1.05-1.05 0-.63-.42-1.05-1.05-1.05H4.2c-1.26 0-2.1-.84-2.1-2.1V4.2c0-1.26.84-2.1 2.1-2.1h50.4c1.26 0 2.1.84 2.1 2.1v11.55c0 .63.42 1.05 1.05 1.05.63 0 1.05-.42 1.05-1.05V4.2c0-2.31-1.89-4.2-4.2-4.2z" fill="#60c100"/><path d="M13.65 25.2h-6.3c-.63 0-1.05-.42-1.05-1.05 0-.63.42-1.05 1.05-1.05h6.3c.63 0 1.05.42 1.05 1.05 0 .63-.42 1.05-1.05 1.05zm16.8 6.3H7.35c-.63 0-1.05-.42-1.05-1.05 0-.63.42-1.05 1.05-1.05h23.1c.63 0 1.05.42 1.05 1.05 0 .63-.42 1.05-1.05 1.05zm-4.2-6.3h-6.3c-.63 0-1.05-.42-1.05-1.05 0-.63.42-1.05 1.05-1.05h6.3c.63 0 1.05.42 1.05 1.05 0 .63-.42 1.05-1.05 1.05zm12.6 0h-6.3c-.63 0-1.05-.42-1.05-1.05 0-.63.42-1.05 1.05-1.05h6.3c.63 0 1.05.42 1.05 1.05 0 .63-.42 1.05-1.05 1.05zM16.8 8.4v8.4H8.4V8.4h8.4m0-2.1H8.4c-1.26 0-2.1.84-2.1 2.1v8.4c0 1.26.84 2.1 2.1 2.1h8.4c1.26 0 2.1-.84 2.1-2.1V8.4c0-1.26-.84-2.1-2.1-2.1z" fill="#ccc"/></svg>