<svg xmlns="http://www.w3.org/2000/svg" width="24" height="24" viewBox="0 0 24 24"><path fill="#444" fill-rule="evenodd" d="M20 12.546v-2.125l-2.54-1.059a5.793 5.793 0 0 0-.237-.581l1.026-2.553-1.503-1.502-2.53 1.042a5.817 5.817 0 0 0-.593-.245L12.546 3h-2.125l-1.05 2.515a6.144 6.144 0 0 0-.616.249L6.23 4.749 4.727 6.252l1.029 2.502c-.1.205-.181.415-.257.631L3 10.454v2.125l2.501 1.042c.077.216.158.425.258.631l-1.01 2.519 1.503 1.502 2.509-1.033c.201.096.406.171.618.245L10.454 20h2.125l1.053-2.528c.201-.074.4-.153.591-.245l2.548 1.021 1.503-1.503-1.046-2.536c.09-.191.161-.385.232-.581L20 12.546zM11.5 16a4.5 4.5 0 1 1 0-9 4.5 4.5 0 0 1 0 9z"/></svg>