<?xml version="1.0" encoding="utf-8"?>
<!-- Generator: Adobe Illustrator 20.1.0, SVG Export Plug-In . SVG Version: 6.00 Build 0)  -->
<svg xmlns="http://www.w3.org/2000/svg" xmlns:xlink="http://www.w3.org/1999/xlink" width="16px" height="16px"  viewBox="0 0 16 16" version="1.1">
<svg viewBox="0 0 15 16" id="icon_general_logout" width="100%" height="100%"><path d="M14.772 8.528l-3.158 3.132a.75.75 0 0 1-1.055 0 .739.739 0 0 1 0-1.05l1.884-1.868H4.026a.746.746 0 0 1-.75-.744c0-.408.337-.74.75-.74h8.413l-1.9-1.884a.739.739 0 0 1 0-1.05.754.754 0 0 1 1.06 0l3.16 3.133c.032.029.032.029.049.048.038.043.038.043.05.06.015.023.02.028.025.038.003.01.005.014.018.031.01.016.016.024.02.039-.011-.01-.003.003.016.031l.017.042a.314.314 0 0 1 .01.026c.028.023.022.027.01.035l.013.059c.005.02.005.02.007.046.004.027.004.027.005.05l.001.036v.036c-.002.024-.002.024-.01.066.001.004 0 .007-.004.024-.003.031-.003.034-.01.057a1.686 1.686 0 0 1-.195.166c.213-.144.213-.144.18-.117-.007.02-.008.024-.017.039-.018.046-.018.046-.066.12.01-.01.01-.01.023-.029l.016-.023a1.001 1.001 0 0 1-.065.096l.024-.03c-.012.021-.014.024-.026.04a1.51 1.51 0 0 1-.03.034l-.048.051zM3.187 1.483c-.932 0-1.689.751-1.692 1.679v9.676c0 .925.76 1.679 1.692 1.679h4.045c.414 0 .749.332.749.743 0 .408-.336.74-.75.74H3.188C1.431 16 0 14.58 0 12.838V3.162C0 1.419 1.43 0 3.187 0H7.3c.414 0 .75.333.75.743 0 .408-.337.74-.75.74H3.187z" fill="#444"></path></svg>
</svg>