<?xml version="1.0" encoding="utf-8"?>
<!-- Generator: Adobe Illustrator 20.1.0, SVG Export Plug-In . SVG Version: 6.00 Build 0)  -->
<svg xmlns="http://www.w3.org/2000/svg" xmlns:xlink="http://www.w3.org/1999/xlink" width="16px" height="16px" viewBox="0 0 16 16" version="1.1" xml:space="preserve">
<style type="text/css">
	.st0{fill:#6d6b6b;}
</style>
<polygon class="st0" points="2.2,17.8 3,12.5 7.5,17 "/>
<polygon class="st0" points="15.1,7 7.8,14.3 7.3,13.9 14.6,6.6 13.4,5.4 6.1,12.7 5.7,12.2 13,4.9 11.8,3.7 4.5,11 3.6,11.9 
	4.8,13.1 5.2,13.6 6.4,14.8 6.9,15.2 8.1,16.4 16.3,8.2 "/>
<path class="st0" d="M17.8,6.7c0,0-1.1-2.3-1.6-2.9c-0.6-0.6-2.9-1.6-2.9-1.6l-0.9,0.9l4.5,4.5L17.8,6.7z"/>
</svg>
