<?xml version="1.0" encoding="UTF-8"?>
<svg width="17px" height="17px" viewBox="0 0 17 17" version="1.1" xmlns="http://www.w3.org/2000/svg" xmlns:xlink="http://www.w3.org/1999/xlink">
    <defs></defs>
    <g id="Page-1" stroke="none" stroke-width="1" fill="none" fill-rule="evenodd">
        <g id="Запрос-на-выплату_справка" transform="translate(-507.000000, -249.000000)">
            <g id="content" transform="translate(232.000000, 88.000000)">
                <g id="head" transform="translate(46.000000, 151.000000)">
                    <g id="Group-6" transform="translate(229.000000, 10.000000)">
                        <circle id="Oval-3-Copy" fill="#ff5722" cx="8.5" cy="8.5" r="8.5"></circle>
                        <path d="M7.3,7.36764706 L7.3,6.88235294 C7.46666667,6.81764706 7.66666667,6.75294118 7.9,6.68823529 C8.16666667,6.62352941 8.43333333,6.55882353 8.7,6.52647059 C8.96666667,6.46176471 9.26666667,6.42941176 9.53333333,6.39705882 C9.8,6.36470588 10.0666667,6.33235294 10.2666667,6.33235294 L10.5333333,6.49411765 L9.16666667,12.8029412 L10.2333333,12.8029412 L10.2333333,13.3205882 C10.1,13.4176471 9.93333333,13.4823529 9.76666667,13.5794118 C9.6,13.6441176 9.4,13.7411765 9.2,13.8058824 C9,13.8705882 8.8,13.9029412 8.6,13.9352941 C8.4,13.9676471 8.2,14 8.03333333,14 C7.63333333,14 7.4,13.9352941 7.23333333,13.7735294 C7.1,13.6441176 7,13.4823529 7,13.3205882 C7,13.1264706 7,12.9323529 7.03333333,12.7382353 C7.06666667,12.5441176 7.1,12.35 7.16666667,12.1235294 L8.2,7.56176471 L7.3,7.36764706 Z M8.56666667,4.06764706 C8.56666667,3.74411765 8.66666667,3.48529412 8.9,3.29117647 C9.13333333,3.09705882 9.43333333,3 9.76666667,3 C10.1333333,3 10.4666667,3.09705882 10.6666667,3.29117647 C10.9,3.48529412 11,3.74411765 11,4.06764706 C11,4.39117647 10.9,4.61764706 10.6666667,4.81176471 C10.4333333,5.00588235 10.1333333,5.10294118 9.76666667,5.10294118 C9.4,5.10294118 9.13333333,5.00588235 8.9,4.81176471 C8.66666667,4.61764706 8.56666667,4.35882353 8.56666667,4.06764706 Z" id="Shape" fill="#FFFFFF" fill-rule="nonzero"></path>
                    </g>
                </g>
            </g>
        </g>
    </g>
</svg>