<svg width="26" height="22" viewBox="0 0 26 22" xmlns="http://www.w3.org/2000/svg" xmlns:xlink="http://www.w3.org/1999/xlink"><title>Page 1</title><defs><path id="a" d="M0 25.83h29.72V0H0z"/></defs><g transform="translate(.239)" fill="none" fill-rule="evenodd"><path d="M25.15 22.59H.95c-.505 0-.9-.39-.9-.887V9.176c0-.497.395-.887.9-.887h8.28v.67H.95c-.132 0-.22.087-.22.217v12.527c0 .13.088.217.22.217h24.2c.132 0 .22-.087.22-.217V9.176c0-.13-.088-.217-.22-.217h-8.12v-.67h8.12c.505 0 .9.39.9.887v12.527a.883.883 0 0 1-.9.886z" fill="#ff5722"/><path d="M.95 8.339a.835.835 0 0 0-.85.837v12.527c0 .47.374.837.85.837h24.2c.476 0 .85-.368.85-.837V9.176a.835.835 0 0 0-.85-.837h-8.07v.57h8.07c.159 0 .27.11.27.267v12.527c0 .156-.111.266-.27.266H.95c-.159 0-.27-.11-.27-.266V9.176c0-.157.111-.266.27-.266h8.23v-.571H.95zm24.2 14.3H.95a.933.933 0 0 1-.95-.936V9.176c0-.525.417-.936.95-.936h8.33v.768H.95c-.104 0-.17.066-.17.168v12.527c0 .102.066.168.17.168h24.2c.103 0 .17-.066.17-.168V9.176c0-.103-.065-.168-.17-.168h-8.17V8.24h8.17c.532 0 .95.411.95.936v12.527a.933.933 0 0 1-.95.936z" fill="#ff5722"/><path d="M8.75 9.008h.648a.396.396 0 0 0 .389-.382.396.396 0 0 0-.389-.383h-.622M17.336 8.241h-.62a.395.395 0 0 0-.388.382c0 .203.181.382.388.382h.646" fill="#ff5722"/><mask id="b" fill="#ff5722"><use xlink:href="#a"/></mask><path fill="#ff5722" mask="url(#b)" d="M7.75 19.851h.6v-.59h-.6z"/><path fill="#ff5722" mask="url(#b)" d="M6.27 19.851h.6v-.59h-.6z"/><path fill="#ff5722" mask="url(#b)" d="M4.79 19.851h.6v-.59h-.6z"/><path fill="#ff5722" mask="url(#b)" d="M3.31 19.851h.6v-.59h-.6z"/><path d="M3.71 13.627h3.76v-1.97H3.71v1.97zm-.6.59h4.96v-3.15H3.11v3.15zM16.67 14.218h4.8v-.591h-4.8zM18.95 12.406h4.68v-.59h-4.68z" fill="#ff5722" mask="url(#b)"/><path d="M28.77 25.78H4.57a.883.883 0 0 1-.9-.886v-1.41h.68v1.41c0 .13.088.217.22.217h24.2c.132 0 .22-.087.22-.217V12.366c0-.13-.088-.216-.22-.216h-1.526v-.67h1.526c.505 0 .9.39.9.886v12.528a.883.883 0 0 1-.9.886" fill="#ff5722" mask="url(#b)"/><path d="M3.72 23.533v1.361c0 .47.374.837.85.837h24.2c.476 0 .85-.368.85-.837V12.366a.835.835 0 0 0-.85-.836h-1.476v.57h1.476c.159 0 .27.11.27.266v12.528c0 .157-.111.266-.27.266H4.57c-.159 0-.27-.11-.27-.266v-1.361h-.58zm25.05 2.296H4.57a.933.933 0 0 1-.95-.935v-1.46h.78v1.46c0 .102.066.167.17.167h24.2c.104 0 .17-.065.17-.167V12.366c0-.101-.066-.167-.17-.167h-1.576v-.768h1.576c.533 0 .95.411.95.935v12.528a.933.933 0 0 1-.95.935z" fill="#ff5722" mask="url(#b)"/><path d="M4.4 24.065l-.007-.61A.394.394 0 0 0 4 23.078a.394.394 0 0 0-.383.386l.008.635M27.66 11.433l-.624.001c-.208 0-.39.18-.389.385 0 .205.183.384.39.383l.65-.001" fill="#ff5722" mask="url(#b)"/><path d="M16.79 4.878a.406.406 0 0 0 .3.113.413.413 0 0 0 .297-.14c.144-.171.146-.424.003-.565L13.143.103c-.022-.022-.08-.08-.121-.08a.657.657 0 0 0-.345-.001c-.018.01-.04.025-.063.04a.897.897 0 0 1-.08.048l-4.24 4.176a.416.416 0 0 0-.13.297c0 .108.047.213.13.295.086.085.203.144.284.144.12 0 .244-.064.326-.119l3.492-3.44v14.725h.86V1.432l3.533 3.446z" fill="#ff5722" mask="url(#b)"/><path d="M12.395 15.74v.675c0 .225.2.422.428.422a.436.436 0 0 0 .429-.422v-.703" fill="#ff5722" mask="url(#b)"/><path fill="#ff5722" mask="url(#b)" d="M22.951 19.852h.6v-.59h-.6z"/><path fill="#ff5722" mask="url(#b)" d="M21.471 19.852h.6v-.59h-.6z"/><path fill="#ff5722" mask="url(#b)" d="M19.991 19.852h.6v-.59h-.6z"/><path fill="#ff5722" mask="url(#b)" d="M18.511 19.852h.6v-.59h-.6z"/></g></svg>