<svg xmlns="http://www.w3.org/2000/svg" xmlns:xlink="http://www.w3.org/1999/xlink" width="30" height="26"><rect id="backgroundrect" width="100%" height="100%" x="0" y="0" fill="none" stroke="none"/><title>Page 1</title><defs><path id="a" d="M0 25.83h29.72V0H0z"/></defs><g class="currentLayer" style=""><title>Layer 1</title><g fill="none" fill-rule="evenodd" id="svg_1" class="selected" transform="rotate(179.8816375732422 15.210109710693358,13.025966644287108) "><path d="M25.500111104547976,22.70166402057279 H1.3001111045479776 c-0.505,0 -0.9,-0.3900000000000003 -0.9,-0.8870000000000005 V9.28766402057279 c0,-0.4970000000000002 0.39500000000000035,-0.8870000000000005 0.9,-0.8870000000000005 h8.28 v0.6700000000000007 H1.3001111045479776 c-0.132,0 -0.2200000000000001,0.08700000000000008 -0.2200000000000001,0.2170000000000001 v12.527 c0,0.13 0.08800000000000008,0.2170000000000001 0.2200000000000001,0.2170000000000001 h24.2 c0.132,0 0.2200000000000001,-0.08700000000000008 0.2200000000000001,-0.2170000000000001 V9.28766402057279 c0,-0.13 -0.08800000000000008,-0.2170000000000001 -0.2200000000000001,-0.2170000000000001 h-8.12 v-0.6700000000000007 h8.12 c0.505,0 0.9,0.3900000000000003 0.9,0.8870000000000005 v12.527 a0.8830000000000005,0.8830000000000005 0 0 1 -0.9,0.8860000000000005 z" fill="#ffffff" id="svg_2"/><path d="M1.3001111045479776,8.45066402057279 a0.8350000000000004,0.8350000000000004 0 0 0 -0.8500000000000004,0.8370000000000004 v12.527 c0,0.4700000000000002 0.3740000000000002,0.8370000000000004 0.8500000000000004,0.8370000000000004 h24.2 c0.4760000000000002,0 0.8500000000000004,-0.3680000000000002 0.8500000000000004,-0.8370000000000004 V9.28766402057279 a0.8350000000000004,0.8350000000000004 0 0 0 -0.8500000000000004,-0.8370000000000004 h-8.07 v0.5700000000000004 h8.07 c0.1590000000000001,0 0.27,0.11000000000000006 0.27,0.267 v12.527 c0,0.1560000000000001 -0.11100000000000006,0.266 -0.27,0.266 H1.3001111045479776 c-0.1590000000000001,0 -0.27,-0.11000000000000006 -0.27,-0.266 V9.28766402057279 c0,-0.1570000000000001 0.11100000000000006,-0.266 0.27,-0.266 h8.23 v-0.5710000000000004 H1.3001111045479776 zm24.2,14.3 H1.3001111045479776 a0.933,0.933 0 0 1 -0.9500000000000004,-0.936 V9.28766402057279 c0,-0.525 0.4170000000000002,-0.936 0.9500000000000004,-0.936 h8.33 v0.7680000000000005 H1.3001111045479776 c-0.10400000000000002,0 -0.17,0.06600000000000006 -0.17,0.16800000000000018 v12.527 c0,0.10200000000000002 0.06600000000000006,0.16800000000000018 0.17,0.16800000000000018 h24.2 c0.10300000000000002,0 0.17,-0.06600000000000006 0.17,-0.16800000000000018 V9.28766402057279 c0,-0.10300000000000002 -0.06500000000000006,-0.16800000000000018 -0.17,-0.16800000000000018 h-8.17 V8.35166402057279 h8.17 c0.532,0 0.9500000000000004,0.4110000000000002 0.9500000000000004,0.936 v12.527 a0.933,0.933 0 0 1 -0.9500000000000004,0.936 z" fill="#ffffff" id="svg_3"/><path d="M9.100111104547977,9.119664020572788 h0.6480000000000006 a0.39600000000000035,0.39600000000000035 0 0 0 0.3890000000000003,-0.3820000000000003 a0.39600000000000035,0.39600000000000035 0 0 0 -0.3890000000000003,-0.3830000000000003 h-0.6220000000000004 M17.686111104547976,8.352664020572789 h-0.6200000000000004 a0.39500000000000035,0.39500000000000035 0 0 0 -0.3880000000000003,0.3820000000000003 c0,0.203 0.1810000000000001,0.3820000000000003 0.3880000000000003,0.3820000000000003 h0.6460000000000006 " fill="#ffffff" id="svg_4"/><mask id="b" fill="#fff" transform="translate(0,0.1111111119389534) translate(0.1111111119389534,0) translate(0,0.0005529086338356137) translate(0.23899999260902405,0) "><use xlink:href="#a" id="svg_5"/></mask><path fill="#ffffff" mask="url(#b)" d="M8.100111104547977,19.962664020572788 h0.6000000000000004 v-0.5900000000000004 h-0.6000000000000004 z" id="svg_6"/><path fill="#ffffff" mask="url(#b)" d="M6.620111104547978,19.962664020572788 h0.6000000000000004 v-0.5900000000000004 h-0.6000000000000004 z" id="svg_7"/><path fill="#ffffff" mask="url(#b)" d="M5.1401111045479775,19.962664020572788 h0.6000000000000004 v-0.5900000000000004 h-0.6000000000000004 z" id="svg_8"/><path fill="#ffffff" mask="url(#b)" d="M3.6601111045479775,19.962664020572788 h0.6000000000000004 v-0.5900000000000004 h-0.6000000000000004 z" id="svg_9"/><path d="M4.060111104547977,13.73866402057279 h3.7600000000000002 v-1.97 H4.060111104547977 v1.97 zm-0.6000000000000004,0.5900000000000004 h4.96 v-3.15 H3.4601111045479773 v3.15 zM17.02011110454798,14.329664020572789 h4.8 v-0.5910000000000004 h-4.8 zM19.300111104547977,12.51766402057279 h4.68 v-0.5900000000000004 h-4.68 z" fill="#ffffff" mask="url(#b)" id="svg_10"/><path d="M29.120111104547977,25.89166402057279 H4.920111104547978 a0.8830000000000005,0.8830000000000005 0 0 1 -0.9,-0.8860000000000005 v-1.4100000000000001 h0.6800000000000007 v1.4100000000000001 c0,0.13 0.08800000000000008,0.2170000000000001 0.2200000000000001,0.2170000000000001 h24.2 c0.132,0 0.2200000000000001,-0.08700000000000008 0.2200000000000001,-0.2170000000000001 V12.477664020572789 c0,-0.13 -0.08800000000000008,-0.2160000000000001 -0.2200000000000001,-0.2160000000000001 h-1.526 v-0.6700000000000007 h1.526 c0.505,0 0.9,0.3900000000000003 0.9,0.8860000000000005 v12.528 a0.8830000000000005,0.8830000000000005 0 0 1 -0.9,0.8860000000000005 " fill="#ffffff" mask="url(#b)" id="svg_11"/><path d="M4.070111104547978,23.64466402057279 v1.361 c0,0.4700000000000002 0.3740000000000002,0.8370000000000004 0.8500000000000004,0.8370000000000004 h24.2 c0.4760000000000002,0 0.8500000000000004,-0.3680000000000002 0.8500000000000004,-0.8370000000000004 V12.477664020572789 a0.8350000000000004,0.8350000000000004 0 0 0 -0.8500000000000004,-0.8360000000000004 h-1.476 v0.5700000000000004 h1.476 c0.1590000000000001,0 0.27,0.11000000000000006 0.27,0.266 v12.528 c0,0.1570000000000001 -0.11100000000000006,0.266 -0.27,0.266 H4.920111104547978 c-0.1590000000000001,0 -0.27,-0.11000000000000006 -0.27,-0.266 v-1.361 h-0.5800000000000004 zm25.05,2.2960000000000003 H4.920111104547978 a0.933,0.933 0 0 1 -0.9500000000000004,-0.935 v-1.46 h0.78 v1.46 c0,0.10200000000000002 0.06600000000000006,0.16700000000000018 0.17,0.16700000000000018 h24.2 c0.10400000000000002,0 0.17,-0.06500000000000006 0.17,-0.16700000000000018 V12.477664020572789 c0,-0.101 -0.06600000000000006,-0.16700000000000018 -0.17,-0.16700000000000018 h-1.576 v-0.7680000000000005 h1.576 c0.533,0 0.9500000000000004,0.4110000000000002 0.9500000000000004,0.935 v12.528 a0.933,0.933 0 0 1 -0.9500000000000004,0.935 z" fill="#ffffff" mask="url(#b)" id="svg_12"/><path d="M4.750111104547978,24.17666402057279 l-0.007000000000000008,-0.6100000000000004 A0.39400000000000035,0.39400000000000035 0 0 0 4.3501111045479774,23.18966402057279 a0.39400000000000035,0.39400000000000035 0 0 0 -0.3830000000000003,0.3860000000000003 l0.008000000000000007,0.6350000000000005 M28.010111104547978,11.544664020572789 l-0.6240000000000004,0.0010000000000000009 c-0.2080000000000001,0 -0.3900000000000003,0.1800000000000001 -0.3890000000000003,0.3850000000000003 c0,0.20500000000000004 0.1830000000000001,0.3840000000000003 0.3900000000000003,0.3830000000000003 l0.6500000000000006,-0.0010000000000000009 " fill="#ffffff" mask="url(#b)" id="svg_13"/><path d="M17.140111104547977,4.989664020572789 a0.406,0.406 0 0 0 0.3000000000000002,0.11300000000000006 a0.4130000000000002,0.4130000000000002 0 0 0 0.2970000000000002,-0.14 c0.14400000000000004,-0.171 0.1460000000000001,-0.4240000000000002 0.003000000000000004,-0.5650000000000004 L13.493111104547978,0.21466402057278905 c-0.022000000000000026,-0.022000000000000026 -0.08000000000000006,-0.08000000000000006 -0.12100000000000002,-0.08000000000000006 a0.6570000000000007,0.6570000000000007 0 0 0 -0.34500000000000036,-0.0010000000000000009 c-0.018000000000000013,0.010000000000000007 -0.04000000000000003,0.02500000000000002 -0.06300000000000006,0.04000000000000003 a0.8970000000000006,0.8970000000000006 0 0 1 -0.08000000000000006,0.04800000000000003 l-4.24,4.176 a0.4160000000000002,0.4160000000000002 0 0 0 -0.13,0.2970000000000002 c0,0.10800000000000005 0.04700000000000003,0.2130000000000001 0.13,0.2950000000000002 c0.08600000000000008,0.08500000000000008 0.203,0.14400000000000004 0.2840000000000002,0.14400000000000004 c0.12000000000000002,0 0.2440000000000001,-0.06400000000000006 0.3260000000000003,-0.11900000000000008 l3.492,-3.44 v14.725 h0.8600000000000004 V1.543664020572789 l3.533,3.446 z" fill="#ffffff" mask="url(#b)" id="svg_14"/><path d="M12.745111104547977,15.85166402057279 v0.6750000000000007 c0,0.22500000000000014 0.2,0.4220000000000002 0.4280000000000002,0.4220000000000002 a0.4360000000000002,0.4360000000000002 0 0 0 0.4290000000000002,-0.4220000000000002 v-0.7030000000000004 " fill="#ffffff" mask="url(#b)" id="svg_15"/><path fill="#ffffff" mask="url(#b)" d="M23.301111104547978,19.96366402057279 h0.6000000000000004 v-0.5900000000000004 h-0.6000000000000004 z" id="svg_16"/><path fill="#ffffff" mask="url(#b)" d="M21.821111104547978,19.96366402057279 h0.6000000000000004 v-0.5900000000000004 h-0.6000000000000004 z" id="svg_17"/><path fill="#ffffff" mask="url(#b)" d="M20.341111104547977,19.96366402057279 h0.6000000000000004 v-0.5900000000000004 h-0.6000000000000004 z" id="svg_18"/><path fill="#ffffff" mask="url(#b)" d="M18.861111104547977,19.96366402057279 h0.6000000000000004 v-0.5900000000000004 h-0.6000000000000004 z" id="svg_19"/></g></g></svg>