<?xml version="1.0" encoding="utf-8"?>
<!-- Generator: Adobe Illustrator 20.1.0, SVG Export Plug-In . SVG Version: 6.00 Build 0)  -->
<svg xmlns="http://www.w3.org/2000/svg" xmlns:xlink="http://www.w3.org/1999/xlink" width="24px" height="24px"  viewBox="0 0 24 24" version="1.1">
<path d="M0 8c0-4.41 3.59-8 8-8s8 3.59 8 8-3.59 8-8 8-8-3.59-8-8zm14.646 0A6.655 6.655 0 0 0 8 1.354 6.655 6.655 0 0 0 1.354 8c0 1.62.588 3.154 1.632 4.354a22.46 22.46 0 0 1 2.15-1.274v-.452a4.348 4.348 0 0 1-.38-1.072c-.262-.24-.428-.616-.593-1.196-.212-.755-.19-1.285.108-1.646a.774.774 0 0 1 .03-.036 3.237 3.237 0 0 1 .068-1.34c.142-.615.467-1.186.954-1.683.247-.26.534-.497.836-.69a3.21 3.21 0 0 1 .959-.457l-.09.015c.268-.09.545-.143.815-.156.727-.062 1.407.084 1.992.43.373.205.662.463.868.73.267.103.52.285.728.563.483.636.604 1.608.388 2.89.216.356.212.87.024 1.539-.202.71-.427 1.126-.765 1.324a4.26 4.26 0 0 1-.211.61v.627c.63.324 1.384.761 2.15 1.274A6.616 6.616 0 0 0 14.647 8zm-6.643 6.653a6.602 6.602 0 0 0 3.998-1.342 20.038 20.038 0 0 0-2.04-1.167.789.789 0 0 1-.448-.716v-1.12c0-.1.023-.198.068-.294.119-.244.21-.537.269-.872a.68.68 0 0 1 .54-.544c.043-.1.094-.245.15-.44.057-.202.082-.345.089-.435a.68.68 0 0 1-.208-.639c.245-1.185.16-1.86-.073-2.169-.064-.083-.134-.12-.12-.121a.677.677 0 0 1-.548-.356 1.21 1.21 0 0 0-.322-.332 1.732 1.732 0 0 0-.203-.13c-.351-.21-.754-.294-1.23-.254a2.44 2.44 0 0 0-.56.102l.089-.016a2.273 2.273 0 0 0-.499.244c-.03.027-.03.027-.044.036a3.13 3.13 0 0 0-.617.508c-.32.33-.526.688-.617 1.073-.102.392-.086.773.046 1.148a.672.672 0 0 1-.338.834c.014.088.039.201.079.342.077.274.144.443.193.532a.673.673 0 0 1 .374.506c.064.416.188.78.366 1.082.06.105.093.221.093.341v.968c0 .306-.173.58-.446.715a21.644 21.644 0 0 0-2.042 1.168 6.647 6.647 0 0 0 4.001 1.348z" fill="#0747A6"></path>
</svg>