<?xml version="1.0" encoding="utf-8"?>
<!-- Generator: Adobe Illustrator 20.1.0, SVG Export Plug-In . SVG Version: 6.00 Build 0)  -->
<svg xmlns="http://www.w3.org/2000/svg" xmlns:xlink="http://www.w3.org/1999/xlink" width="24px" height="24px"  viewBox="0 0 24 24" version="1.1">
<path d="M10.598 4.781c.344 0 .624.287.624.639 0 .352-.28.639-.624.639H8.611a.62.62 0 0 0-.612.626.62.62 0 0 0 .612.626h1.126c1.025 0 1.856.852 1.856 1.904 0 1.026-.797 1.866-1.797 1.902v.584c0 .352-.28.64-.624.64a.633.633 0 0 1-.624-.64v-.583h-.834a.633.633 0 0 1-.625-.639c0-.351.28-.638.625-.638h2.023a.62.62 0 0 0 .611-.626.62.62 0 0 0-.611-.626H8.61c-1.025 0-1.86-.855-1.86-1.904 0-1.028.803-1.87 1.8-1.903v-.567c0-.352.28-.64.624-.64s.624.288.624.64v.566h.8zM9.184 14.68c3.6 0 6.526-2.996 6.526-6.68 0-3.684-2.927-6.68-6.526-6.676-1.775 0-3.431.714-4.675 2.017a.638.638 0 0 1-.913.007.675.675 0 0 1-.009-.933C5.07.858 7.06 0 9.184 0c2.086 0 4.05.833 5.526 2.344A8.047 8.047 0 0 1 17 8a8.058 8.058 0 0 1-2.286 5.656A7.679 7.679 0 0 1 9.187 16a7.679 7.679 0 0 1-5.526-2.344 8.031 8.031 0 0 1-2.276-5.172l-.283.29a.635.635 0 0 1-.913 0 .672.672 0 0 1 0-.935l1.37-1.403a.635.635 0 0 1 .914 0L3.84 7.84a.673.673 0 0 1-.004.938.64.64 0 0 1-.91-.004l-.245-.252c.26 3.442 3.075 6.159 6.503 6.159z" fill="#fff"></path>
</svg>