<svg width="16px" height="16px" viewBox="0 0 16 16" version="1.1" xmlns="http://www.w3.org/2000/svg" xmlns:xlink="http://www.w3.org/1999/xlink"><g id="#-Icons" stroke="none" stroke-width="1" fill="none" fill-rule="evenodd"><g id="Artboard-1" transform="translate(-1827.000000, -844.000000)"><path fill="white" d="M1834.52999,848 L1827,848 L1827,849.5 L1833.66396,849.5 L1834.52999,848 Z M1832.79794,851 L1827,851 L1827,852.5 L1831.93191,852.5 L1832.79794,851 Z M1831.1818,854 L1827,854 L1827,855.5 L1830.77498,855.5 C1830.85973,855.0037 1831.00124,854.484252 1831.1818,854 L1831.1818,854 Z" id="Combined-Shape"></path><path fill="white" d="M1838.24999,846.960334 C1838.11065,847.053231 1837.98972,847.178847 1837.89942,847.334095 L1833.86482,854.270351 C1833.53578,854.836032 1833.25723,855.756304 1833.21732,856.416292 L1833,860.01001 L1836.02687,858.026344 C1836.5764,857.666207 1837.24784,856.96001 1837.57545,856.396783 L1841.61005,849.460527 C1841.69977,849.306287 1841.74893,849.140046 1841.76055,848.974009 C1841.89914,848.881759 1842.01918,848.757165 1842.10854,848.603533 L1842.77769,847.453134 C1843.23365,846.669257 1842.96566,845.679958 1842.18037,845.229937 L1841.30546,844.728556 C1840.51891,844.277814 1839.52054,844.547075 1839.06706,845.326701 L1838.39791,846.477101 C1838.30899,846.629966 1838.26082,846.795153 1838.24999,846.960334 L1838.24999,846.960334 Z M1838.99078,847.959516 L1834.95618,854.895772 C1834.72495,855.293314 1834.50344,856.025122 1834.47525,856.491236 L1834.40894,857.587764 L1835.33251,856.982501 C1835.71915,856.729116 1836.25452,856.166032 1836.48409,855.771362 L1840.51869,848.835106 L1838.99078,847.959516 Z M1839.55655,846.986847 L1840.15842,845.952123 C1840.2649,845.769068 1840.49328,845.707474 1840.67536,845.811818 L1841.55027,846.313199 C1841.73324,846.41805 1841.79404,846.642523 1841.68633,846.827713 L1841.08446,847.862436 L1839.55655,846.986847 Z" id="Combined-Shape"></path></g></g></svg>