<?xml version="1.0" encoding="utf-8"?>
<!-- Generator: Adobe Illustrator 20.1.0, SVG Export Plug-In . SVG Version: 6.00 Build 0)  -->
<svg xmlns="http://www.w3.org/2000/svg" xmlns:xlink="http://www.w3.org/1999/xlink" width="22px" height="22px"  viewBox="0 0 22 22" version="1.1" xml:space="preserve">
<g fill="#ffffff">
<path d="M2 4a1 1 0 0 0-1 1v9a1 1 0 0 0 1 1h13a1 1 0 0 0 1-1V5a1 1 0 0 0-1-1H2zm0-1h13a2 2 0 0 1 2 2v9a2 2 0 0 1-2 2H2a2 2 0 0 1-2-2V5a2 2 0 0 1 2-2z"/>
<path d="M1 5.5v-3A1.5 1.5 0 0 1 2.5 1h10A1.5 1.5 0 0 1 14 2.5h1A2.5 2.5 0 0 0 12.5 0h-10A2.5 2.5 0 0 0 0 2.5v3h1z"/>
<rect x="5" y="9" width="7" height="1" rx=".5"/>
<rect transform="rotate(-90 8.5 9.5)" x="5" y="9" width="7" height="1" rx=".5"/>
</g>
</svg>