s<svg xmlns="http://www.w3.org/2000/svg" xmlns:xlink="http://www.w3.org/1999/xlink" width="30" height="26" style=""><rect id="backgroundrect" width="100%" height="100%" x="0" y="0" fill="none" stroke="none"/><title>Page 1</title><defs><path id="a" d="M0 25.83h29.72V0H0z"/></defs><g class="currentLayer" style=""><title>Layer 1</title><g fill="none" fill-rule="evenodd" id="svg_1" class="selected" transform="rotate(89.866943359375 15.774199485778805,13.32188129425049) "><path d="M23.52196605789994,22.910500895213456 H5.300786041089497 c-0.3802353681193933,0 -0.6776471907078266,-0.3864901087272714 -0.6776471907078266,-0.879017247284839 V9.617223155553047 c0,-0.49252713855757013 0.29741182258844295,-0.879017247284839 0.6776471907078266,-0.879017247284839 h6.234354154512004 v0.6639701867878814 H5.300786041089497 c-0.09938825463714812,0 -0.16564709106191658,0.08621702425454669 -0.16564709106191658,0.21504706049696962 v12.414260492375575 c0,0.12883003624242315 0.06625883642476585,0.21504706049696962 0.16564709106191658,0.21504706049696962 h18.221180016810447 c0.09938825463714812,0 0.16564709106191658,-0.08621702425454669 0.16564709106191658,-0.21504706049696962 V9.617223155553047 c0,-0.12883003624242315 -0.06625883642476585,-0.21504706049696962 -0.16564709106191658,-0.21504706049696962 h-6.113883542830613 v-0.6639701867878814 h6.113883542830613 c0.3802353681193933,0 0.6776471907078266,0.3864901087272714 0.6776471907078266,0.879017247284839 v12.414260492375575 a0.6648471882166836,0.8750532461696826 0 0 1 -0.6776471907078266,0.878026247006052 z" fill="#ffffff" id="svg_2"/><path d="M5.300786041089497,8.787755922207605 a0.6287060047122655,0.8274852327878707 0 0 0 -0.6400001245573966,0.8294672333454506 v12.414260492375575 c0,0.4657701310303016 0.28160005480525546,0.8294672333454506 0.6400001245573966,0.8294672333454506 h18.221180016810447 c0.3584000697521449,0 0.6400001245573966,-0.3646881025939383 0.6400001245573966,-0.8294672333454506 V9.617223155553047 a0.6287060047122655,0.8274852327878707 0 0 0 -0.6400001245573966,-0.8294672333454506 h-6.076236476680178 v0.5648701589090905 h6.076236476680178 c0.11971767035838526,0 0.20329415721234914,0.10901003066666598 0.20329415721234914,0.2645970744363642 v12.414260492375575 c0,0.1545960434909106 -0.08357648685396672,0.2636060741575752 -0.20329415721234914,0.2636060741575752 H5.300786041089497 c-0.11971767035838526,0 -0.20329415721234914,-0.10901003066666598 -0.20329415721234914,-0.2636060741575752 V9.617223155553047 c0,-0.15558704376969765 0.08357648685396672,-0.2636060741575752 0.20329415721234914,-0.2636060741575752 h6.1967070883615705 v-0.5658611591878748 H5.300786041089497 zm18.221180016810447,14.171303986666464 H5.300786041089497 a0.7024942543671178,0.9246032601090747 0 0 1 -0.7152942568582666,-0.9275762609454378 V9.617223155553047 c0,-0.5202751463636289 0.31397653169463263,-0.9275762609454378 0.7152942568582666,-0.9275762609454378 h6.27200122066244 v0.7610882141090851 H5.300786041089497 c-0.07830589759290545,0 -0.12800002491147872,0.06540601840000076 -0.12800002491147872,0.16648804683636492 v12.414260492375575 c0,0.10108202843636259 0.04969412731857512,0.16648804683636492 0.12800002491147872,0.16648804683636492 h18.221180016810447 c0.0775529562698963,0 0.12800002491147872,-0.06540601840000076 0.12800002491147872,-0.16648804683636492 V9.617223155553047 c0,-0.10207302871515084 -0.04894118599556616,-0.16648804683636492 -0.12800002491147872,-0.16648804683636492 h-6.151530608981048 V8.689646894607602 h6.151530608981048 c0.4005647838406298,0 0.7152942568582666,0.40730111458181656 0.7152942568582666,0.9275762609454378 v12.414260492375575 a0.7024942543671178,0.9246032601090747 0 0 1 -0.7152942568582666,0.9275762609454378 z" fill="#ffffff" id="svg_3"/><path d="M11.173728360557329,9.450735108716684 h0.4879059773096436 a0.2981647639114514,0.39243611039999776 0 0 0 0.2928941746503878,-0.37856210649696975 a0.2981647639114514,0.39243611039999776 0 0 0 -0.2928941746503878,-0.37955310677575765 h-0.4683295029114128 M17.638482559909992,8.690637894886393 h-0.4668236202653928 a0.29741182258844295,0.3914451101212108 0 0 0 -0.29214123332737696,0.37856210649696975 c0,0.20117305659393783 0.1362823794645749,0.37856210649696975 0.29214123332737696,0.37856210649696975 h0.48640009466362205 " fill="#ffffff" id="svg_4"/><mask id="b" fill="#fff" transform="translate(0.1689639538526535,0.16857478022575378) translate(0.056366678327322006,0.05623260885477066) translate(-0.1700153350830078,-0.16961906850337982) translate(0,0.11299434304237366) translate(0.621333122253418,0.6198880672454834) translate(0,0.11299434304237366) translate(-0.11299435049295425,0) translate(0,-0.11299435049295425) translate(0,-0.11299435049295425) translate(0,-0.11299435049295425) translate(0,0.11299435049295425) translate(0,0.11299435049295425) translate(0,0.11299435049295425) translate(0,0.11299435049295425) translate(0,0.11299435049295425) translate(-0.11299435049295425,0) translate(-0.11299435049295425,0) translate(-0.11299435049295425,0) translate(-0.11299435049295425,0) translate(-0.11299435049295425,0) translate(-0.11299435049295425,0) translate(0,0.11299435049295425) translate(0,0.11299435049295425) translate(0,0.11299435049295425) translate(0,0.11299435049295425) translate(0,0.11299435049295425) translate(0,0.11299435049295425) translate(0,0.11299435049295425) translate(0,0.11299435049295425) translate(0,0.11299435049295425) translate(0,0.11299435049295425) translate(0,0.11299435049295425) translate(0,0.11299435049295425) translate(2.2018115520477295,-0.8439172506332397) translate(0.2249399572610855,-0.2254628986120224) translate(-0.2266446053981781,-0.22611869871616364) translate(0.33858633041381836,0.33780381083488464) translate(0.11299434304237366,0.11299434304237366) translate(0,-0.11299435049295425) translate(0,0.11299434304237366) translate(0.2249390035867691,-0.2254638522863388) translate(0.11299434304237366,0.11299434304237366) translate(-0.16974987089633942,-0.16935871541500092) translate(0.11286084353923798,0.11260063201189041) translate(0,0.11299434304237366) translate(-0.05623537302017212,-0.05610290542244911) translate(-0.22611939907073975,-0.2255941778421402) translate(0,0.11299434304237366) translate(0.11299434304237366,0.11299434304237366) translate(0.22598320245742798,0.2272929698228836) translate(1.6938754320144653,1.7037007808685303) translate(1.0231455564498901,-1.0172419548034668) translate(-0.6831902861595154,0.6792512536048889) translate(-0.11299435049295425,0) translate(0.11299434304237366,0.11299434304237366) translate(0,0.11299434304237366) translate(-0.11299435049295425,0) translate(-0.11299435049295425,0) translate(-0.11299435049295425,0) translate(-0.11299435049295425,0) translate(-0.11299435049295425,0) translate(-0.11299435049295425,0) translate(-0.11299435049295425,0) translate(-0.11299435049295425,0) translate(-0.11299435049295425,0) translate(-0.11299435049295425,0) translate(-0.11299435049295425,0) translate(-0.11299435049295425,0) translate(-0.11299435049295425,0) translate(-0.11299435049295425,0) translate(-0.11299435049295425,0) translate(-0.11299435049295425,0) translate(-0.11299435049295425,0) translate(0,0.11299434304237366) translate(0.23899999260902405,0) translate(28.038101196289062,0.3384300768375397) scale(0.9542892575263977,1) translate(-28.038101196289062,-0.3384300768375397) translate(-1.0547910928726196,1.0176817178726196) scale(0.9282647371292114,1) translate(1.0547910928726196,-1.0176817178726196) translate(0.018705220893025398,25.830150604248047) scale(1,1.1311595439910889) translate(-0.018705220893025398,-25.830150604248047) translate(1.9308886528015137,24.341262817382812) scale(1,1.0154691934585571) translate(-1.9308886528015137,-24.341262817382812) translate(2.313553810119629,-1.464633822441101) scale(1,1.015242576599121) translate(-2.313553810119629,1.464633822441101) translate(2.0582921504974365,24.193614959716797) scale(1,0.9962661862373352) translate(-2.0582921504974365,-24.193614959716797) translate(1.9948089122772217,-1.4964523315429688) scale(1,0.9924781322479248) translate(-1.9948089122772217,1.4964523315429688) translate(2.122215509414673,24.419565200805664) scale(1,0.9886008501052856) translate(-2.122215509414673,-24.419565200805664) translate(2.058145046234131,-1.1780149936676025) scale(0.9828720688819885,1) translate(-2.058145046234131,1.1780149936676025) translate(2.4821457862854004,-1.276678442955017) scale(1,0.9770011901855469) translate(-2.4821457862854004,1.276678442955017) translate(2.87103009223938,24.826290130615234) scale(1,0.9842426776885986) translate(-2.87103009223938,-24.826290130615234) translate(2.6107168197631836,-0.8122415542602539) scale(0.9825735688209534,1) translate(-2.6107168197631836,0.8122415542602539) translate(2.919956922531128,-1.0179252624511719) scale(0.8801307082176208,0.9518600702285767) translate(-2.919956922531128,1.0179252624511719) translate(5.1914262771606445,-0.25380051136016846) scale(1,0.9538906812667847) translate(-5.1914262771606445,0.25380051136016846) translate(6.016635417938232,0.47028666734695435) scale(1,1.0132267475128174) translate(-6.016635417938232,-0.47028666734695435) translate(5.79083251953125,0.29594942927360535) scale(1,0.9956721663475037) translate(-5.79083251953125,-0.29594942927360535) translate(5.865694522857666,0.35323968529701233) scale(1,0.9869701266288757) translate(-5.865694522857666,-0.35323968529701233) "><use xlink:href="#a" id="svg_5"/></mask><path fill="#ff5722" mask="url(#b)" d="M10.420787037548632,20.196151131613497 h0.45176479380522233 v-0.5846901644848428 h-0.45176479380522233 z" id="svg_6"/><path fill="#ffffff" mask="url(#b)" d="M9.30643387949576,20.196151131613497 h0.45176479380522233 v-0.5846901644848428 h-0.45176479380522233 z" id="svg_7"/><path fill="#ff5722" mask="url(#b)" d="M8.192080721442892,20.196151131613497 h0.45176479380522233 v-0.5846901644848428 h-0.45176479380522233 z" id="svg_8"/><path fill="#ffffff" mask="url(#b)" d="M7.077727563390022,20.196151131613497 h0.45176479380522233 v-0.5846901644848428 h-0.45176479380522233 z" id="svg_9"/><path d="M7.378904092593499,14.02816539643783 h2.831059374512698 v-1.9522705492120942 H7.378904092593499 v1.9522705492120942 zm-0.45176479380522233,0.5846901644848428 h3.734588962123133 v-3.1216508781817724 H6.927139298788283 v3.1216508781817724 zM17.137023638786204,14.613846561201456 h3.6141183504417422 v-0.585681164763634 h-3.6141183504417422 zM18.85372985524603,12.81815405603785 h3.523765391680698 v-0.5846901644848428 h-3.523765391680698 z" fill="#ff5722" mask="url(#b)" id="svg_10"/><path d="M26.247613647191425,26.071791784546747 H8.026433630380978 a0.6648471882166836,0.8750532461696826 0 0 1 -0.6776471907078266,-0.878026247006052 v-1.3973103930908923 h0.5120000996459151 v1.3973103930908923 c0,0.12883003624242315 0.06625883642476585,0.21504706049696962 0.16564709106191658,0.21504706049696962 h18.221180016810447 c0.09938825463714812,0 0.16564709106191658,-0.08621702425454669 0.16564709106191658,-0.21504706049696962 V12.778514044886332 c0,-0.12883003624242315 -0.06625883642476585,-0.21405606021817972 -0.16564709106191658,-0.21405606021817972 h-1.1489884589112709 v-0.6639701867878814 h1.1489884589112709 c0.3802353681193933,0 0.6776471907078266,0.3864901087272714 0.6776471907078266,0.878026247006052 v12.415251492654363 a0.6648471882166836,0.8750532461696826 0 0 1 -0.6776471907078266,0.878026247006052 " fill="#ffffff" mask="url(#b)" id="svg_11"/><path d="M7.386433505823588,23.845014158110416 v1.3487513794302837 c0,0.4657701310303016 0.28160005480525546,0.8294672333454506 0.6400001245573966,0.8294672333454506 h18.221180016810447 c0.3584000697521449,0 0.6400001245573966,-0.3646881025939383 0.6400001245573966,-0.8294672333454506 V12.778514044886332 a0.6287060047122655,0.8274852327878707 0 0 0 -0.6400001245573966,-0.8284762330666625 h-1.1113413927608355 v0.5648701589090905 h1.1113413927608355 c0.11971767035838526,0 0.20329415721234914,0.10901003066666598 0.20329415721234914,0.2636060741575752 v12.415251492654363 c0,0.15558704376969765 -0.08357648685396672,0.2636060741575752 -0.20329415721234914,0.2636060741575752 H8.026433630380978 c-0.11971767035838526,0 -0.20329415721234914,-0.10901003066666598 -0.20329415721234914,-0.2636060741575752 v-1.3487513794302837 h-0.4367059673450485 zm18.86118014136784,2.275336640096937 H8.026433630380978 a0.7024942543671178,0.9246032601090747 0 0 1 -0.7152942568582666,-0.9265852606666483 v-1.4468604070302846 h0.5872942319467896 v1.4468604070302846 c0,0.10108202843636259 0.04969412731857512,0.1654970465575766 0.12800002491147872,0.1654970465575766 h18.221180016810447 c0.07830589759290545,0 0.12800002491147872,-0.06441501812121263 0.12800002491147872,-0.1654970465575766 V12.778514044886332 c0,-0.10009102815757467 -0.04969412731857512,-0.1654970465575766 -0.12800002491147872,-0.1654970465575766 h-1.1866355250617069 v-0.7610882141090851 h1.1866355250617069 c0.40131772516363706,0 0.7152942568582666,0.40730111458181656 0.7152942568582666,0.9265852606666483 v12.415251492654363 a0.7024942543671178,0.9246032601090747 0 0 1 -0.7152942568582666,0.9265852606666483 z" fill="#ffffff" mask="url(#b)" id="svg_12"/><path d="M7.898433605469499,24.37222630642556 l-0.005270589261060953,-0.6045101700606023 A0.2966588812654346,0.39045410984242457 0 0 0 7.597257076266023,23.394109031261937 a0.2966588812654346,0.39045410984242457 0 0 0 -0.2883765267123353,0.38252610761211986 l0.006023530584069623,0.6292851770303063 M25.411848778651777,11.85391078477726 l-0.4698353855574338,0.000991000278787878 c-0.15661179518581086,0 -0.2936471159733955,0.1783800501818188 -0.2928941746503878,0.3815351073333338 c0,0.20315505715151297 0.13778826211059347,0.38054410705454417 0.2936471159733955,0.37955310677575765 l0.48941185995566394,-0.000991000278787878 " fill="#ffffff" mask="url(#b)" id="svg_13"/><path d="M17.22737659754724,5.357903957322804 a0.3056941771415328,0.4023461131878743 0 0 0 0.22588239690260994,0.11198303150302988 a0.3109647664025959,0.4092831151393897 0 0 0 0.22362357293358257,-0.13874003903030294 c0.10842355051325316,-0.16946104767272638 0.10992943315927016,-0.4201841182060602 0.0022588239690261645,-0.5599151575151484 L14.48139959253453,0.6258776261107521 c-0.016564709106191677,-0.021802006133333652 -0.06023530584069659,-0.07928002230303083 -0.09110590008405378,-0.07928002230303083 a0.49468244921671917,0.651087183163637 0 0 0 -0.25976475643800273,-0.000991000278787878 c-0.013552943814156929,0.009910002787878822 -0.030117652920348438,0.024775006969697068 -0.04743530334954885,0.03964001115151556 a0.6753883667388006,0.8889272500727248 0 0 1 -0.06023530584069659,0.047568013381818465 l-3.1924712095568735,4.138417164218122 a0.31322359037162106,0.41225611597575657 0 0 0 -0.09788237199113214,0.2943270828000042 c0,0.1070280301090904 0.03538824218140929,0.2110830593818164 0.09788237199113214,0.292345082242423 c0.06475295377874862,0.08423502369697064 0.15284708857076826,0.14270404014545493 0.21383533573447236,0.14270404014545493 c0.09035295876104416,0 0.1837176828141253,-0.06342401784242437 0.2454588713008374,-0.11792903317575716 l2.6292710999463673,-3.4090409590302553 v14.592479105151298 h0.6475295377874888 V1.942916996619826 l2.6601416941897247,3.414986960702981 z" fill="#B8BCC0" mask="url(#b)" id="svg_14"/><path d="M13.918199482924024,16.12214898551659 v0.6689251881818173 c0,0.22297506272727227 0.1505882646017394,0.4182021176484836 0.32225888624772586,0.4182021176484836 a0.3282824168317938,0.43207612155151315 0 0 0 0.3230118275707338,-0.4182021176484836 v-0.6966731959878701 " fill="#ffffff" mask="url(#b)" id="svg_15"/><path fill="#ff5722" mask="url(#b)" d="M21.866248088603825,20.197142131892285 h0.45176479380522233 v-0.5846901644848428 h-0.45176479380522233 z" id="svg_16"/><path fill="#ffffff" mask="url(#b)" d="M20.75189493055095,20.197142131892285 h0.45176479380522233 v-0.5846901644848428 h-0.45176479380522233 z" id="svg_17"/><path fill="#ff5722" mask="url(#b)" d="M19.637541772498082,20.197142131892285 h0.45176479380522233 v-0.5846901644848428 h-0.45176479380522233 z" id="svg_18"/><path fill="#ffffff" mask="url(#b)" d="M18.523188614445218,20.197142131892285 h0.45176479380522233 v-0.5846901644848428 h-0.45176479380522233 z" id="svg_19"/></g></g></svg>