<svg xmlns="http://www.w3.org/2000/svg" width="16" height="16" viewBox="0 0 16 16"><g xmlns="http://www.w3.org/2000/svg" fill="#42526E" fill-rule="evenodd"><path d="M1.003 3A1 1 0 0 0 0 4.01v1.98A1 1 0 0 0 1.003 7h4.994A1 1 0 0 0 7 5.99V4.01A1 1 0 0 0 5.997 3H1.003zM1 4v2h5V4H1zm9.003-1A1 1 0 0 0 9 4.01v1.98A1 1 0 0 0 10.003 7h4.994A1 1 0 0 0 16 5.99V4.01A1 1 0 0 0 14.997 3h-4.994zM10 4v2h5V4h-5zM1.003 9A1 1 0 0 0 0 10.01v1.98A1 1 0 0 0 1.003 13h4.994A1 1 0 0 0 7 11.99v-1.98A1 1 0 0 0 5.997 9H1.003zM1 10v2h5v-2H1zm9.003-1A1 1 0 0 0 9 10.01v1.98A1 1 0 0 0 10.003 13h4.994A1 1 0 0 0 16 11.99v-1.98A1 1 0 0 0 14.997 9h-4.994zM10 10v2h5v-2h-5z"/></g></svg>