<svg xmlns="http://www.w3.org/2000/svg" viewBox="836.1 2679.2 8249.2 6434.5"><path fill="#ffffff" d="M8767.2 2679.2H1154c-175.7 0-318 142.3-318 317.9v5798.6c0 175.6 142.3 318 318 318h7613.3c175.6 0 318-142.3 318-318V2997.1c-.1-175.6-142.4-317.9-318.1-317.9zm22.1 6148.6H1131.9V4569.4h7657.4v4258.4zm0-4554.3H1131.9V2985.1h7657.4v1288.4z"/><circle fill="none" stroke="#ffffff" stroke-width="150" stroke-miterlimit="10" cx="1764.8" cy="3622.4" r="169.7"/><circle fill="none" stroke="#ffffff" stroke-width="150" stroke-miterlimit="10" cx="2361.9" cy="3622.4" r="169.7"/><circle fill="none" stroke="#ffffff" stroke-width="150" stroke-miterlimit="10" cx="2959.1" cy="3622.4" r="169.7"/><g fill="#ffffff"><path d="M2419.1 5335.1h1039v346.3h-1039zM2419.1 6201h1039v346.3h-1039zM2419.1 6893.6h1039v346.3h-1039zM2419.1 7619.8h1039v346.3h-1039zM4150.8 5335.1h3463.3v346.3H4150.8zM4150.8 6201h3463.3v346.3H4150.8zM4150.8 6893.6h3463.3v346.3H4150.8zM4150.8 7619.8h3463.3v346.3H4150.8z"/></g></svg>