<svg xmlns="http://www.w3.org/2000/svg" id="Layer_1" viewBox="0 0 7112.5 5366.5"><style>.st1{fill:#69d720}</style>
<path class="st1" d="M5958.6 4695.4c-214.5-565.1-577.2-697.3-869.5-749.5-243.8-43.7-547.7-134.5-655.3-193.7-3.5-49-5.4-148.4 4.4-310.7 5.9-6.7 12-12.4 17.9-19.5l-3-2.8c144.1-193.3 213-374.9 244-497.6 93.1-65.6 190.8-193.6 248.4-440.9 33.3-143.4 58.2-324.5-44.7-454.2-2.5-3.1-4.9-6.1-7.4-9.2 92.2-908.4-490.1-1367.3-832.1-1486.8l-4.9-1.7-4.8-1.4c-128.9-38.8-253.1-58.6-368.5-58.6-27.2 0-52.6 1.2-77.2 3.1-25.2-2.1-51-3.1-76.7-3.1-115.7 0-239.8 19.7-368.7 58.5l-4.7 1.5-4.8 1.5c-342.2 119.4-924.3 578.4-832.2 1486.8-2.7 3.1-5.1 6.1-7.4 9.2-103 129.7-78 310.8-44.7 454.2 57.5 247.4 155.1 375.3 248.4 440.9 30.7 121.7 99.4 300.9 240.8 492.6v.1c.2.2 1.5 1.9 1.7 2.2 8.1 11 13.9 21.5 22.4 32.4 9.2 155.6 7.4 252.5 3.2 303.7-108.2 58.7-411.2 149.6-654.8 193.2-292.1 52.1-655 184.3-869.3 749.3-36.4 96.1-23.4 200.3 35.6 285.8 220.1 318.8 1380 385.8 2314.2 385.8s2094.3-67 2314.3-385.7c58.9-85.3 71.7-189.5 35.4-285.4zM2722.4 2753s-2.2.4-6.2.4c-28.7 0-150.2-18.9-221.4-325.9-55.5-238.6 2.5-276.4 45.3-276.4 19.7 0 36.1 8.1 36.1 8.1C2364.6 1053.1 3228 752 3228 752c118.8-35.8 218.5-48.6 301-48.6 27.5 0 53.1 1.3 76.7 4.1 23.9-2.7 49.6-4.1 77.2-4.1 82.4 0 182.1 12.8 301 48.6 0 0 863.2 301 651.6 1407.2 0 0 16.6-8.1 36.2-8.1 42.7 0 100.7 37.8 45.1 276.4-71.2 307.1-192.9 325.9-221.5 325.9-3.9 0-6.1-.3-6.1-.3s-15.3 287.9-280.2 598.3c0 2.4-.3 5.1-.3 7.4-206.2 209.8-416.5 311.4-627.3 303.5-262.2-10.9-469.4-189.8-572.3-298.2-.2-1.6-.3-4-.3-5.6-270.4-313.2-286.4-605.5-286.4-605.5zm886.3 2379.3c-1110.2 0-2220.3-118.1-2130.8-354.1 179-471.7 463.8-561.1 691.6-601.8 227.7-40.7 780.8-179.1 829.5-309.2 14.8-39.1 20.2-112 21.3-194 139.4 104.6 325.8 203.5 550.1 213.2 12.3.7 24.6 1 36.9 1 202.5 0 399.8-75.1 589.9-220.2.9 84.4 6.3 159.9 21.5 199.9 48.6 130.1 601.7 268.5 829.5 309.2 227.7 40.7 512.6 130.1 691.4 601.8 89.4 236.1-1020.6 354.2-2130.9 354.2z"/></svg>