<svg xmlns="http://www.w3.org/2000/svg" xmlns:xlink="http://www.w3.org/1999/xlink" width="132" height="30" style=""><rect id="backgroundrect" width="100%" height="100%" x="0" y="0" fill="none" stroke="none" class="" style=""/>
				   <g class="currentLayer" style=""><title>Layer 1</title><path class="path-2" x="50" fill-rule="evenodd" fill="#444" d="M41.27268942932054,13.37857118844986 L41.27268942932054,20.851691180467608 Q41.27268942932054,21.247856577634813 40.93093730095646,21.54438037490845 Q40.58918517259237,21.84210467338562 40.10930822568115,21.84210467338562 Q39.628007311568396,21.84210467338562 39.28625518320432,21.55398438453674 Q38.94450305484025,21.265864095687867 38.94450305484025,20.851691180467608 L38.94450305484025,10.371315673589708 Q38.90178403879472,9.849097650051117 39.360301477683194,9.578984879255295 Q39.82024288377319,9.308872108459473 40.29015206027381,9.372498672246932 Q40.76006123677442,9.434924734830854 41.03773484107023,9.759060059785844 L47.93685593242012,17.808420629501345 L47.93685593242012,10.389323191642763 Q47.93685593242012,9.993157794475554 48.2786080607842,9.705037505626679 Q48.62036018914828,9.416917216777803 49.0902693656489,9.416917216777803 Q49.56017854214951,9.416917216777803 49.911898440924205,9.705037505626679 Q50.265042306900426,9.993157794475554 50.265042306900426,10.389323191642763 L50.265042306900426,20.851691180467608 Q50.265042306900426,21.265864095687867 49.911898440924205,21.55398438453674 Q49.56017854214951,21.84210467338562 49.06890985762614,21.84210467338562 Q48.57764117310277,21.84210467338562 48.214529536715936,21.481954312324522 Q48.12909150462492,21.409924240112307 48.107731996602155,21.373909204006193 L41.27268942932054,13.37857118844986 zM56.566097173613166,21.84210467338562 Q56.0748284890898,21.84210467338562 55.733076360725725,21.55398438453674 Q55.39132423236164,21.265864095687867 55.39132423236164,20.851691180467608 L55.39132423236164,10.227255529165268 Q55.39132423236164,9.813082613945008 55.733076360725725,9.52496232509613 Q56.0748284890898,9.236842036247253 56.566097173613166,9.236842036247253 L63.550656297054076,9.236842036247253 Q64.02056547355468,9.236842036247253 64.37228537232939,9.52496232509613 Q64.72542923830561,9.813082613945008 64.72542923830561,10.227255529165268 Q64.72542923830561,10.641428444385529 64.37228537232939,10.939152742862701 Q64.02056547355468,11.235676540136335 63.550656297054076,11.235676540136335 L57.76222962288745,11.235676540136335 L57.76222962288745,14.531052343845367 L62.738994992189376,14.531052343845367 Q63.20890416868998,14.531052343845367 63.56062406746469,14.828776642322541 Q63.913767933440894,15.125300439596174 63.913767933440894,15.529869345188143 Q63.913767933440894,15.935638751983642 63.572015805076845,16.233363050460813 Q63.23026367671274,16.52988684773445 62.738994992189376,16.52988684773445 L57.76222962288745,16.52988684773445 L57.76222962288745,19.843270169496538 L63.550656297054076,19.843270169496538 Q64.02056547355468,19.843270169496538 64.37228537232939,20.139793966770174 Q64.72542923830561,20.43751826524734 64.72542923830561,20.843287672042845 Q64.72542923830561,21.247856577634813 64.37228537232939,21.54438037490845 Q64.02056547355468,21.84210467338562 63.550656297054076,21.84210467338562 L56.63017569768142,21.84210467338562 L56.58745668163593,21.824097155332563 L56.566097173613166,21.84210467338562 zM78.03240273648203,9.52496232509613 Q78.03240273648203,9.52496232509613 78.20327880066407,9.669022469520568 Q78.37415486484609,9.813082613945008 78.37415486484609,10.227255529165268 Q78.37415486484609,10.641428444385529 78.02101099886985,10.939152742862701 Q77.66929110009518,11.235676540136335 77.19938192359456,11.235676540136335 L73.8032201479765,11.235676540136335 L73.8032201479765,20.851691180467608 Q73.8032201479765,21.265864095687867 73.46146801961243,21.55398438453674 Q73.11971589124833,21.84210467338562 72.62844720672499,21.84210467338562 Q72.13717852220162,21.84210467338562 71.79542639383753,21.55398438453674 Q71.45367426547345,21.265864095687867 71.45367426547345,20.851691180467608 L71.45367426547345,11.235676540136335 L68.07887199787815,11.235676540136335 Q67.58760331335479,11.235676540136335 67.2458511849907,10.939152742862701 Q66.9040990566266,10.641428444385529 66.9040990566266,10.227255529165268 Q66.9040990566266,9.813082613945008 67.2458511849907,9.52496232509613 Q67.58760331335479,9.236842036247253 68.07887199787815,9.236842036247253 L77.19938192359456,9.236842036247253 Q77.69065060811792,9.236842036247253 78.03240273648203,9.52496232509613 zM86.89659856592536,9.236842036247253 Q88.79759477995057,9.236842036247253 90.14324378538413,10.371315673589708 Q91.48889279081769,11.50578931093216 91.48889279081769,13.100054909229279 Q91.48889279081769,14.69312000632286 90.14324378538413,15.817989634037016 Q88.79759477995057,16.944059762954716 86.89659856592536,16.944059762954716 L84.2693790791265,16.944059762954716 L84.2693790791265,20.851691180467608 Q84.2693790791265,21.265864095687867 83.91623521315026,21.55398438453674 Q83.56451531437556,21.84210467338562 83.0732466298522,21.84210467338562 Q82.58197794532883,21.84210467338562 82.24022581696477,21.55398438453674 Q81.89847368860066,21.265864095687867 81.89847368860066,20.851691180467608 L81.89847368860066,10.227255529165268 Q81.89847368860066,9.813082613945008 82.24022581696477,9.52496232509613 Q82.58197794532883,9.236842036247253 83.0732466298522,9.236842036247253 L86.89659856592536,9.236842036247253 M84.2693790791265,11.235676540136335 L84.2693790791265,14.94522525906563 L86.89659856592536,14.94522525906563 Q87.81505741090383,14.94522525906563 88.45584265158648,14.404999717473984 Q89.09662789226914,13.864774175882339 89.11798740029188,13.108458417654036 Q89.09662789226914,12.316127623319627 88.45584265158648,11.775902081727981 Q87.81505741090383,11.235676540136335 86.89659856592536,11.235676540136335 L84.2693790791265,11.235676540136335 zM95.5258398071184,21.84210467338562 Q95.03457112259504,21.84210467338562 94.69281899423095,21.55398438453674 Q94.35106686586687,21.265864095687867 94.35106686586687,20.851691180467608 L94.35106686586687,10.227255529165268 Q94.35106686586687,9.813082613945008 94.69281899423095,9.52496232509613 Q95.03457112259504,9.236842036247253 95.5258398071184,9.236842036247253 L102.51039893055932,9.236842036247253 Q102.98030810705994,9.236842036247253 103.33202800583463,9.52496232509613 Q103.68517187181082,9.813082613945008 103.68517187181082,10.227255529165268 Q103.68517187181082,10.641428444385529 103.33202800583463,10.939152742862701 Q102.98030810705994,11.235676540136335 102.51039893055932,11.235676540136335 L96.7219722563927,11.235676540136335 L96.7219722563927,14.531052343845367 L101.69873762569463,14.531052343845367 Q102.16864680219521,14.531052343845367 102.52036670096994,14.828776642322541 Q102.87351056694615,15.125300439596174 102.87351056694615,15.529869345188143 Q102.87351056694615,15.935638751983642 102.53175843858206,16.233363050460813 Q102.19000631021801,16.52988684773445 101.69873762569463,16.52988684773445 L96.7219722563927,16.52988684773445 L96.7219722563927,19.843270169496538 L102.51039893055932,19.843270169496538 Q102.98030810705994,19.843270169496538 103.33202800583463,20.139793966770174 Q103.68517187181082,20.43751826524734 103.68517187181082,20.843287672042845 Q103.68517187181082,21.247856577634813 103.33202800583463,21.54438037490845 Q102.98030810705994,21.84210467338562 102.51039893055932,21.84210467338562 L95.58991833118665,21.84210467338562 L95.54719931514117,21.824097155332563 L95.5258398071184,21.84210467338562 zM115.51833931641713,9.777067577838897 Q115.81737242873572,9.434924734830854 116.29724937564694,9.372498672246932 Q116.77855028975969,9.308872108459473 117.16302143416928,9.552573852777481 Q117.5474925785789,9.795075095891953 117.62153887305776,10.200844502687454 Q117.69700913473817,10.60541340827942 117.41933553044234,10.929548733234405 L113.04063638577755,15.989661306142807 L113.04063638577755,20.851691180467608 Q113.04063638577755,21.265864095687867 112.6988842574135,21.55398438453674 Q112.35713212904939,21.84210467338562 111.87583121493665,21.84210467338562 Q111.3959542680254,21.84210467338562 111.0428104020492,21.55398438453674 Q110.69109050327452,21.265864095687867 110.69109050327452,20.851691180467608 L110.69109050327452,15.989661306142807 L106.35511037465521,10.929548733234405 Q106.05607726233664,10.60541340827942 106.12015578640492,10.209248011112214 Q106.18423431047319,9.813082613945008 106.59006496290553,9.560977361202239 Q106.99589561533789,9.308872108459473 107.46580479183848,9.372498672246932 Q107.93571396833912,9.434924734830854 108.2133875726349,9.777067577838897 L111.86586344452603,13.990826802253725 L115.51833931641713,9.777067577838897 zM128.59035822634326,21.211841541528702 L127.54374233322824,18.870864194631576 L122.35338188369879,18.870864194631576 L121.30676599058376,21.211841541528702 Q121.00773287826519,21.84210467338562 120.27011786787939,21.84210467338562 Q119.53392682469511,21.84210467338562 119.21353420435378,21.401520731687548 Q118.89314158401244,20.959736288785937 119.08537715621723,20.49154081940651 L123.8058284292461,9.885112686157225 Q123.95534498540539,9.59699239730835 124.26434586813455,9.416917216777803 Q124.5747707180653,9.236842036247253 124.93788235445214,9.254849554300309 Q125.74954365931681,9.218834518194198 126.06993627965814,9.885112686157225 L130.79038755268704,20.49154081940651 Q130.9826231248918,20.959736288785937 130.6622305045505,21.401520731687548 Q130.34183788420918,21.84210467338562 129.60422287382337,21.84210467338562 Q128.86803183063907,21.84210467338562 128.59035822634326,21.211841541528702 M123.20776220460897,16.890037208795547 L126.66800250429532,16.890037208795547 L124.93788235445214,13.018420827388764 L123.20776220460897,16.890037208795547 z" id="svg_1"/><path fill-rule="evenodd" class="path-1" fill="#4eb929" d="M22,29.123598123073577 C20.27,27.36859812307358 9,15.944598123073577 9,15.944598123073577 L11,13.917598123073578 C11,13.917598123073578 21.939,25.006598123073577 23,26.08159812307358 C24.061,27.157598123073576 27,26.919598123073577 27,25.068598123073578 C27,23.216598123073577 27,8.011598123073577 27,5.807598123073578 C27,3.603598123073578 24.105,2.659598123073578 23,3.780598123073578 C21.895,4.9005981230735784 20,7.0095981230735775 20,7.0095981230735775 L18,5.010598123073578 C18,5.010598123073578 20.503,2.1365981230735778 22,0.7395981230735779 C23.497,-0.6594018769264222 30,-0.4634018769264222 30,4.794598123073577 C30,10.051598123073578 30,19.893598123073577 30,25.068598123073578 C30,30.24359812307358 23.73,30.87759812307358 22,29.123598123073577 zM19,16.103598123073578 C19,16.103598123073578 8.061,5.013598123073578 7,3.938598123073578 C5.939,2.862598123073578 3,3.1005981230735777 3,4.951598123073577 C3,6.804598123073578 3,22.009598123073577 3,24.21259812307358 C3,26.416598123073577 5.8950000000000005,27.361598123073577 7,26.24059812307358 C8.105,25.11959812307358 10,23.009598123073577 10,23.009598123073577 L12,25.009598123073577 C12,25.009598123073577 9.497,27.88359812307358 8,29.28159812307358 C6.503,30.67959812307358 0,30.484598123073578 0,25.22659812307358 C0,19.969598123073578 0,10.127598123073579 0,4.951598123073577 C0,-0.22340187692642216 6.27,-0.8564018769264221 8,0.897598123073578 C9.73,2.651598123073578 21,14.075598123073577 21,14.075598123073577 L19,16.103598123073578 z" id="svg_2"/></g></svg>