<?xml version="1.0" encoding="utf-8"?>
<!-- Generator: Adobe Illustrator 16.0.0, SVG Export Plug-In . SVG Version: 6.00 Build 0)  -->
<!DOCTYPE svg PUBLIC "-//W3C//DTD SVG 1.1//EN" "http://www.w3.org/Graphics/SVG/1.1/DTD/svg11.dtd">
<svg version="1.1" id="Layer_1" xmlns="http://www.w3.org/2000/svg" xmlns:xlink="http://www.w3.org/1999/xlink" x="0px" y="0px"
	 width="80px" height="50px" viewBox="0 0 80 50" enable-background="new 0 0 80 50" xml:space="preserve">
<g>
	<defs>
		<rect id="SVGID_1_" x="10" y="18.735" width="60" height="12.529"/>
	</defs>
	<clipPath id="SVGID_2_">
		<use xlink:href="#SVGID_1_"  overflow="visible"/>
	</clipPath>
	<path clip-path="url(#SVGID_2_)" fill="#4D4E4E" d="M63.651,23.083c0.178-0.052,0.377-0.115,0.593-0.183
		c0.218-0.068,0.46-0.132,0.731-0.189c0.268-0.059,0.57-0.106,0.902-0.143c0.334-0.038,0.712-0.057,1.133-0.057
		c1.238,0,2.091,0.361,2.562,1.079c0.47,0.718,0.551,1.703,0.245,2.948l-1.078,4.503h-2.362l1.046-4.408
		c0.063-0.274,0.113-0.541,0.151-0.801c0.037-0.257,0.034-0.484-0.008-0.682c-0.043-0.193-0.141-0.353-0.293-0.476
		c-0.155-0.122-0.39-0.182-0.707-0.182c-0.306,0-0.616,0.033-0.935,0.097l-1.537,6.452h-2.364L63.651,23.083z"/>
	<path clip-path="url(#SVGID_2_)" fill="#4D4E4E" d="M59.964,31.041h-2.348l1.981-8.338h2.363L59.964,31.041z M61.104,21.687
		c-0.328,0-0.624-0.098-0.888-0.293c-0.265-0.194-0.396-0.493-0.396-0.896c0-0.222,0.046-0.43,0.135-0.626
		c0.089-0.195,0.209-0.364,0.357-0.507c0.147-0.143,0.32-0.256,0.515-0.341c0.195-0.084,0.404-0.126,0.625-0.126
		c0.329,0,0.625,0.098,0.889,0.293c0.264,0.196,0.398,0.495,0.398,0.896c0,0.222-0.049,0.431-0.137,0.627
		c-0.089,0.195-0.208,0.364-0.356,0.507c-0.148,0.143-0.319,0.256-0.515,0.34C61.535,21.646,61.326,21.687,61.104,21.687"/>
	<path clip-path="url(#SVGID_2_)" fill="#4D4E4E" d="M52.714,31.263c-0.559,0-1.046-0.085-1.459-0.254
		c-0.412-0.17-0.752-0.406-1.021-0.713c-0.271-0.307-0.472-0.668-0.61-1.086c-0.138-0.418-0.205-0.88-0.205-1.386
		c0-0.636,0.102-1.271,0.309-1.904c0.205-0.635,0.509-1.205,0.912-1.711c0.399-0.508,0.893-0.923,1.474-1.246
		c0.58-0.322,1.247-0.483,1.996-0.483c0.55,0,1.034,0.085,1.453,0.255c0.416,0.168,0.759,0.407,1.03,0.713
		c0.268,0.307,0.471,0.667,0.608,1.086c0.139,0.417,0.207,0.879,0.207,1.387c0,0.634-0.102,1.269-0.301,1.904
		c-0.199,0.632-0.497,1.203-0.888,1.711c-0.392,0.507-0.88,0.922-1.468,1.244C54.166,31.101,53.486,31.263,52.714,31.263
		 M53.887,24.478c-0.348,0-0.655,0.101-0.919,0.3c-0.264,0.202-0.486,0.456-0.665,0.761c-0.18,0.308-0.314,0.643-0.405,1.007
		c-0.09,0.365-0.134,0.71-0.134,1.039c0,0.528,0.085,0.94,0.253,1.237c0.17,0.296,0.476,0.442,0.92,0.442
		c0.349,0,0.655-0.1,0.92-0.301c0.264-0.2,0.485-0.454,0.665-0.762c0.18-0.305,0.315-0.641,0.405-1.006
		c0.09-0.364,0.135-0.711,0.135-1.038c0-0.528-0.085-0.941-0.255-1.237C54.638,24.626,54.332,24.478,53.887,24.478"/>
	<path clip-path="url(#SVGID_2_)" fill="#4D4E4E" d="M42.29,27.712c0-0.718,0.116-1.396,0.35-2.029c0.231-0.635,0.565-1.19,1-1.666
		c0.431-0.474,0.958-0.85,1.577-1.125c0.617-0.274,1.308-0.413,2.068-0.413c0.477,0,0.901,0.045,1.275,0.136
		c0.376,0.09,0.717,0.208,1.023,0.356l-0.809,1.84c-0.212-0.086-0.431-0.161-0.658-0.23c-0.227-0.07-0.504-0.104-0.832-0.104
		c-0.783,0-1.402,0.27-1.862,0.808c-0.46,0.539-0.691,1.264-0.691,2.174c0,0.538,0.116,0.975,0.35,1.307
		c0.232,0.333,0.661,0.499,1.284,0.499c0.308,0,0.604-0.031,0.888-0.094c0.286-0.063,0.539-0.144,0.762-0.238l0.175,1.886
		c-0.297,0.116-0.623,0.22-0.983,0.312c-0.359,0.087-0.788,0.133-1.284,0.133c-0.655,0-1.211-0.096-1.665-0.285
		c-0.454-0.191-0.829-0.445-1.125-0.769c-0.297-0.323-0.511-0.701-0.643-1.135C42.357,28.642,42.29,28.187,42.29,27.712"/>
	<path clip-path="url(#SVGID_2_)" fill="#4D4E4E" d="M37.908,20.625l2.457-0.381l-0.604,2.458h2.633l-0.476,1.934h-2.617
		l-0.696,2.917c-0.064,0.242-0.101,0.47-0.111,0.681c-0.012,0.212,0.015,0.395,0.079,0.547c0.063,0.153,0.176,0.272,0.341,0.356
		c0.164,0.085,0.398,0.127,0.706,0.127c0.253,0,0.499-0.023,0.737-0.071c0.237-0.047,0.478-0.111,0.721-0.198l0.176,1.809
		c-0.318,0.116-0.662,0.217-1.031,0.3c-0.371,0.086-0.809,0.127-1.316,0.127c-0.729,0-1.294-0.108-1.697-0.323
		c-0.402-0.217-0.687-0.514-0.856-0.89c-0.168-0.374-0.243-0.806-0.222-1.291c0.022-0.487,0.095-0.999,0.222-1.538L37.908,20.625z"
		/>
	<path clip-path="url(#SVGID_2_)" fill="#4D4E4E" d="M33.854,31.041h-2.347l1.982-8.338h2.362L33.854,31.041z M34.996,21.687
		c-0.328,0-0.625-0.098-0.888-0.293c-0.266-0.194-0.397-0.493-0.397-0.896c0-0.222,0.045-0.43,0.134-0.626
		c0.09-0.195,0.209-0.364,0.358-0.507c0.147-0.143,0.319-0.256,0.515-0.341c0.196-0.084,0.405-0.126,0.627-0.126
		c0.327,0,0.622,0.098,0.887,0.293c0.264,0.196,0.396,0.495,0.396,0.896c0,0.222-0.044,0.431-0.135,0.627
		c-0.09,0.195-0.208,0.364-0.356,0.507c-0.147,0.143-0.321,0.256-0.515,0.34C35.426,21.646,35.218,21.687,34.996,21.687"/>
	<path clip-path="url(#SVGID_2_)" fill="#4D4E4E" d="M28.357,22.526c0.508,0,0.946,0.091,1.315,0.27
		c0.371,0.181,0.676,0.423,0.921,0.729c0.243,0.308,0.423,0.667,0.539,1.078c0.116,0.413,0.174,0.857,0.174,1.332
		c0,0.729-0.134,1.42-0.404,2.069c-0.27,0.651-0.636,1.215-1.102,1.697c-0.465,0.48-1.015,0.859-1.649,1.14
		c-0.633,0.28-1.321,0.421-2.06,0.421c-0.096,0-0.264-0.003-0.501-0.008c-0.237-0.005-0.509-0.029-0.815-0.07
		c-0.308-0.043-0.632-0.105-0.976-0.191c-0.342-0.083-0.668-0.2-0.975-0.349l2.743-11.525l2.457-0.381l-0.982,4.09
		c0.211-0.094,0.422-0.168,0.634-0.222C27.887,22.554,28.114,22.526,28.357,22.526 M26.295,29.313c0.371,0,0.719-0.091,1.046-0.27
		c0.329-0.179,0.612-0.421,0.849-0.721c0.238-0.303,0.426-0.644,0.563-1.023c0.137-0.38,0.207-0.777,0.207-1.19
		c0-0.507-0.085-0.902-0.254-1.188c-0.168-0.285-0.481-0.428-0.936-0.428c-0.149,0-0.34,0.029-0.578,0.079
		c-0.238,0.054-0.452,0.166-0.643,0.333l-1.046,4.344c0.063,0.012,0.119,0.021,0.166,0.032c0.046,0.01,0.099,0.018,0.15,0.023
		c0.054,0.006,0.116,0.009,0.19,0.009H26.295z"/>
	<path clip-path="url(#SVGID_2_)" fill="#FDB515" d="M22.314,26.477c-0.834,3.344-4.222,5.386-7.576,4.552
		c-3.345-0.834-5.386-4.223-4.552-7.567c0.834-3.345,4.222-5.386,7.567-4.552C21.107,19.734,23.148,23.131,22.314,26.477"/>
	<path clip-path="url(#SVGID_2_)" fill="#FFFFFF" d="M19.213,24.157c0.112-0.834-0.521-1.269-1.391-1.564l0.27-1.129l-0.687-0.165
		l-0.261,1.103c-0.182-0.043-0.365-0.086-0.547-0.121l0.261-1.104l-0.695-0.165l-0.269,1.129c-0.147-0.035-0.296-0.061-0.443-0.095
		l-0.947-0.226l-0.173,0.73c0,0,0.512,0.112,0.495,0.121c0.277,0.069,0.33,0.251,0.321,0.391l-0.304,1.286
		c0.018,0.009,0.044,0.009,0.07,0.026c-0.026-0.009-0.043-0.009-0.07-0.018l-0.417,1.799c-0.035,0.086-0.122,0.208-0.313,0.164
		c0.009,0.009-0.504-0.121-0.504-0.121l-0.33,0.791l0.895,0.208c0.165,0.044,0.33,0.078,0.486,0.121l-0.27,1.139l0.686,0.164
		l0.27-1.128c0.191,0.052,0.374,0.095,0.547,0.138l-0.27,1.121l0.687,0.166l0.27-1.139c1.172,0.209,2.05,0.112,2.406-0.955
		c0.287-0.853-0.026-1.339-0.652-1.66C18.796,25.061,19.126,24.765,19.213,24.157 M17.667,26.371
		c-0.2,0.853-1.642,0.409-2.103,0.297l0.356-1.512C16.39,25.269,17.875,25.478,17.667,26.371 M17.858,24.157
		c-0.183,0.773-1.381,0.4-1.772,0.304l0.33-1.373C16.798,23.183,18.049,23.349,17.858,24.157"/>
</g>
</svg>
