<?xml version="1.0" encoding="UTF-8" standalone="no"?>
<svg width="34px" height="33px" viewBox="0 0 34 33" version="1.1" xmlns="http://www.w3.org/2000/svg" xmlns:xlink="http://www.w3.org/1999/xlink">
    <!-- Generator: Sketch 49.1 (51147) - http://www.bohemiancoding.com/sketch -->
    <title>visa_mastercard</title>
    <desc>Created with Sketch.</desc>
    <defs></defs>
    <g id="Page-1" stroke="none" stroke-width="1" fill="none" fill-rule="evenodd">
        <g id="visa_mastercard" transform="translate(1.000000, 0.000000)" fill-rule="nonzero">
            <rect id="Rectangle-path" fill="#4095eb" x="0" y="0" width="32" height="31.8962963" rx="2"></rect>
            <path d="M0.414814815,16.1777778 L31.6148148,16.1777778 L31.6148148,29.5111111 C31.6148148,30.6156806 30.7193843,31.5111111 29.6148148,31.5111111 L2.41481481,31.5111111 C1.31024532,31.5111111 0.414814815,30.6156806 0.414814815,29.5111111 L0.414814815,16.1777778 Z" id="Rectangle-path" fill="#4095eb"></path>
            <path d="M13.1604034,20.207548 L10.1435362,27.3932159 L8.18164715,27.3932159 L6.70097613,21.6521273 C6.60843419,21.3002541 6.53440064,21.1706166 6.25677483,21.0224595 C5.67230439,20.7469464 5.05722823,20.5417963 4.42444444,20.4113113 L4.46146122,20.2075953 L7.62639552,20.2075953 C8.05674923,20.2030877 8.4224841,20.5213114 8.47778135,20.9483809 L9.25513364,25.1153001 L11.180006,20.2261149 L13.1604034,20.2261149 L13.1604034,20.207548 Z M20.8598927,25.0412215 C20.8598927,23.1522182 18.2317017,23.0411003 18.2502101,22.1891968 C18.2502101,21.9299219 18.5093275,21.6521273 19.0460707,21.5780487 C19.6738547,21.5208224 20.3056584,21.6293799 20.8784011,21.8928826 L21.2115521,20.3742721 C20.6556468,20.1641023 20.066023,20.0574034 19.4717637,20.0594382 C17.6394333,20.0594382 16.3438461,21.0409791 16.3253377,22.4299522 C16.3068294,23.4670521 17.2507571,24.0411609 17.9540759,24.3930341 C18.6573946,24.7449073 18.916512,24.9671429 18.916512,25.2819768 C18.916512,25.7634875 18.342752,25.9857232 17.8060088,25.9857232 C17.1407531,26.0033945 16.4827818,25.8435956 15.8996448,25.5227322 L15.5664938,27.0969016 C15.9921868,27.3006177 16.8065558,27.4672944 17.6394333,27.4858141 C19.5643056,27.5043337 20.8413843,26.5413124 20.8598927,25.0412215 Z M25.7090903,27.3932159 L27.4303704,27.3932159 L25.931191,20.2075953 L24.3394696,20.2075953 C23.9936738,20.2030899 23.6793591,20.4078844 23.543609,20.7261452 L20.7488424,27.3932159 L22.6922231,27.3932159 L23.0808993,26.3190767 L25.4684813,26.3190767 L25.7090903,27.3932159 Z M23.6361509,24.8375055 L24.6170954,22.1336379 L25.1723471,24.8375055 L23.6361509,24.8375055 Z M15.8071029,20.2075953 L14.2709067,27.3932159 L12.4200679,27.3932159 L13.9562641,20.2075953 L15.8071029,20.2075953 Z" id="Shape" fill="#ffff" opacity="0.9"></path>
            <g id="_Group_" transform="translate(7.360000, 2.560000)">
                <rect id="Rectangle-path" fill="#b2d4f7" x="6.20740741" y="1.21481481" width="5.14074074" height="8.38518519"></rect>
                <path d="M6.72592593,5.40740741 C6.72637379,3.77318196 7.47398354,2.22884942 8.75555556,1.21481481 C6.91889743,-0.229265293 4.3561467,-0.309806961 2.43243415,1.01609289 C0.508721591,2.34199275 -0.328052983,4.76562361 0.367845043,6.99596134 C1.06374307,9.22629906 3.1302871,10.744052 5.46666667,10.7407407 C6.66012107,10.7415807 7.8189374,10.3396489 8.75555556,9.6 C7.47398354,8.5859654 6.72637379,7.04163285 6.72592593,5.40740741 Z" id="_Path_" fill="#ffffff"></path>
                <path d="M16.9018519,9.0037037 L16.9018519,8.57513228 L16.9851852,8.57513228 L16.9851852,8.5037037 L16.7851852,8.5037037 L16.7851852,8.57513228 L16.8685185,8.57513228 L16.8685185,9.0037037 L16.9018519,9.0037037 Z M17.2851852,9.0037037 L17.2851852,8.5037037 L17.2185185,8.5037037 L17.1518519,8.86084656 L17.0851852,8.5037037 L17.0185185,8.5037037 L17.0185185,9.0037037 L17.0685185,9.0037037 L17.0685185,8.61084656 L17.1351852,8.93227513 L17.1851852,8.93227513 L17.2518519,8.61084656 L17.2518519,9.0037037 L17.2851852,9.0037037 Z" id="Shape" fill="#b2d4f7"></path>
                <path d="M17.3925926,5.40740741 C17.3903234,7.44664245 16.2254328,9.30607943 14.3915125,10.1978311 C12.5575922,11.0895827 10.3757059,10.8575303 8.77037037,9.6 C10.0522782,8.58623884 10.7999603,7.04172664 10.7999603,5.40740741 C10.7999603,3.77308818 10.0522782,2.22857597 8.77037037,1.21481481 C10.3757059,-0.0427155 12.5575922,-0.274767873 14.3915125,0.616983757 C16.2254328,1.50873539 17.3903234,3.36817237 17.3925926,5.40740741 Z" id="Shape" fill="#b2d4f7"></path>
            </g>
        </g>
    </g>
</svg>