<svg xmlns="http://www.w3.org/2000/svg" width="207.8113250732422" height="140.3773651123047" style=""><rect id="backgroundrect" width="100%" height="100%" x="0" y="0" fill="none" stroke="none" class="selected" style=""/><defs><style>.cls-1{fill:none;}.cls-2{fill:#231f20;}.cls-3{fill:#ff5f00;}.cls-4{fill:#eb001b;}.cls-5{fill:#f79e1b;}</style></defs><title>mc_vrt_rgb_pos</title><g class="currentLayer" style=""><title>Layer 1</title><g id="Layer_2" data-name="Layer 2" class=""><g id="Layer_1-2" data-name="Layer 1"><rect class="cls-1" width="163.0264129638672" height="123.80622863769531" id="svg_1" y="8.679244995117188" x="24.150941848754883"/><path class="cls-2" d="M64.51885930512552,116.90815466885513 v-6.1692329260697125 a3.953501642220949,3.6604115361346965 0 0 0 -4.1756084760535845,-3.9071808531774836 a4.108976425903795,3.804360304409657 0 0 0 -3.73139480838831,1.7479493290530863 a3.8979749337627894,3.609001261750781 0 0 0 -3.509287974555674,-1.7479493290530863 a3.509287974555674,3.249129341063382 0 0 0 -3.109495673656925,1.4600517925031657 V107.0785102066507 H47.68316130061161 v9.82964446220441 h2.3321217552426945 V111.49979380366732 a2.48759653892554,2.3031802923993596 0 0 1 2.5986499558418585,-2.611641938702845 c1.532537153445199,0 2.30991107185943,0.9253849389104577 2.30991107185943,2.5910778289492797 v5.4700531944484805 h2.3321217552426945 V111.49979380366732 a2.498701880617173,2.3134623472761415 0 0 1 2.5986499558418585,-2.611641938702845 c1.5769585202117262,0 2.3321217552426945,0.9253849389104577 2.3321217552426945,2.5910778289492797 v5.4700531944484805 zM99.02315594102578,107.0785102066507 H95.22512908248764 V104.0967142923837 h-2.3321217552426945 v2.9817959142670283 H90.78299240583492 v1.9535904265887427 h2.1544362881765853 V113.55620477902391 c0,2.2826161826457945 0.9550593854803424,3.639847426381132 3.6869734416217836,3.639847426381132 a5.419406745516357,5.017642779870033 0 0 0 2.887388839824288,-0.7608720608819317 l-0.6663205014979124,-1.8302057680673482 a4.2644512095866425,3.9483090726846157 0 0 1 -2.0433828712602655,0.5552309633462743 c-1.110534169163188,0 -1.532537153445199,-0.6580515121141037 -1.532537153445199,-1.645128780285257 V109.03210063323947 h3.775816175154838 zm19.700876160954948,-0.24676931704278887 a3.13170635704019,2.899539475252765 0 0 0 -2.798546106291234,1.4394876827495997 V107.0785102066507 H113.6377856072133 v9.82964446220441 h2.30991107185943 V111.39697325489952 c0,-1.6245646705316914 0.7551632350309685,-2.5293854996885834 2.221068338326376,-2.5293854996885834 a3.764710833463206,3.4856166032293876 0 0 1 1.443694419912144,0.24676931704278887 l0.7107418682644414,-2.0564109753565707 a4.941877052776184,4.575514420168371 0 0 0 -1.643590570361519,-0.26733342679635436 zm-29.784526416956695,1.0282054876782858 a7.940319309516792,7.351669236899741 0 0 0 -4.331083259736432,-1.0282054876782858 c-2.6874926893749147,0 -4.442136676652751,1.1927183657068117 -4.442136676652751,3.1463087922955544 c0,1.6040005607781251 1.2882196362292977,2.5910778289492797 3.664762758238519,2.899539475252765 l1.110534169163188,0.14394876827496014 c1.2660089528460345,0.1645128780285261 1.8656974041941554,0.4729745243320125 1.8656974041941554,1.0282054876782858 c0,0.7608720608819317 -0.8440059685640235,1.1927183657068117 -2.4209644887757498,1.1927183657068117 a5.6526189210406255,5.233565932282471 0 0 1 -3.5314986579389367,-1.0282054876782858 l-1.110534169163188,1.665692890038822 a7.662685767225999,7.09461786498017 0 0 0 4.597611460335597,1.2749748047210732 c3.065074306890398,0 4.8419289775514995,-1.3366671339817713 4.8419289775514995,-3.2080011215562503 s-1.3992730531456168,-2.6322060484564105 -3.709184125005047,-2.940667694759896 l-1.110534169163188,-0.14394876827496014 c-0.9994807522468703,-0.12338465852139446 -1.7990653540443646,-0.3084616463034861 -1.7990653540443646,-0.9665131584175888 s0.7551632350309685,-1.151590146199681 2.0211721878770024,-1.151590146199681 a6.840890482045236,6.333745804098239 0 0 1 3.3316025074895634,0.8431284998961949 zm61.86785856408118,-1.0282054876782858 a3.13170635704019,2.899539475252765 0 0 0 -2.798546106291234,1.4394876827495997 V107.0785102066507 h-2.2877003884761664 v9.82964446220441 h2.30991107185943 V111.39697325489952 c0,-1.6245646705316914 0.7551632350309685,-2.5293854996885834 2.221068338326376,-2.5293854996885834 a3.764710833463206,3.4856166032293876 0 0 1 1.443694419912144,0.24676931704278887 l0.7107418682644414,-2.0564109753565707 a4.941877052776184,4.575514420168371 0 0 0 -1.643590570361519,-0.26733342679635436 zm-29.76231573357343,5.141027438391427 a5.363880037058197,4.9662325054861185 0 0 0 5.6637242627322575,5.141027438391427 a5.552670845815938,5.141027438391427 0 0 0 3.8202375419213643,-1.1721542559532456 l-1.110534169163188,-1.7273852192995198 a4.664243510485389,4.318463048248799 0 0 1 -2.7763354229079686,0.8842567194033267 a3.4093398993309862,3.1565908471723363 0 0 1 0,-6.292617584591109 a4.664243510485389,4.318463048248799 0 0 1 2.7763354229079686,0.8842567194033267 l1.110534169163188,-1.7273852192995198 a5.552670845815938,5.141027438391427 0 0 0 -3.8202375419213643,-1.1721542559532456 a5.363880037058197,4.9662325054861185 0 0 0 -5.6637242627322575,5.141027438391427 zm21.63320561529889,0 V107.0785102066507 h-2.30991107185943 v1.1927183657068117 a4.031239034062373,3.732385920272177 0 0 0 -3.3316025074895634,-1.4394876827495997 a5.552670845815938,5.141027438391427 0 0 0 0,10.282054876782857 a4.031239034062373,3.732385920272177 0 0 0 3.3316025074895634,-1.4394876827495997 v1.1927183657068117 h2.30991107185943 zm-8.595534469323072,0 a3.209443748881612,2.9715138593902455 0 1 1 3.220549090573244,3.1463087922955544 a3.187233065498349,2.9509497496366794 0 0 1 -3.220549090573244,-3.1463087922955544 zm-27.874407645996016,-5.141027438391427 a5.552670845815938,5.141027438391427 0 0 0 0.15547478368284667,10.282054876782857 A6.452203522838121,5.973873883410839 0 0 0 110.77260745077228,115.777128632409 l-1.110534169163188,-1.5834364510245598 a5.052930469692505,4.678334968936198 0 0 1 -3.087284990273662,1.0282054876782858 a2.942915548282449,2.7247445423474574 0 0 1 -3.1761277238067174,-2.4060008411671885 h7.884792601058633 c0,-0.26733342679635436 0,-0.5346668535927089 0,-0.8225643901426302 c0,-3.084616463034857 -2.0655935546435296,-5.141027438391427 -5.0418251280008715,-5.141027438391427 zm0,1.9124622070816106 a2.631965980916755,2.4368470057975364 0 0 1 2.6874926893749147,2.3854367314136242 h-5.552670845815938 a2.7319140561414414,2.5293854996885834 0 0 1 2.820756789674497,-2.3854367314136242 zM164.0782475706053,111.99333243775291 V103.1302011339661 H161.8571792322789 v5.141027438391427 a4.031239034062373,3.732385920272177 0 0 0 -3.3316025074895634,-1.4394876827495997 a5.552670845815938,5.141027438391427 0 0 0 0,10.282054876782857 a4.031239034062373,3.732385920272177 0 0 0 3.3316025074895634,-1.4394876827495997 v1.1927183657068117 H164.0782475706053 zm3.8535535669962613,3.4856166032293876 a1.110534169163188,1.0282054876782858 0 0 1 0.42200298428201255,0.07197438413748013 a1.110534169163188,1.0282054876782858 0 0 1 0.3442655924405885,0.2056410975356574 a1.110534169163188,1.0282054876782858 0 0 1 0.23321217552426968,0.3084616463034861 a1.0327967773217661,0.9562311035408064 0 0 1 0,0.7608720608819317 a1.110534169163188,1.0282054876782858 0 0 1 -0.23321217552426968,0.3084616463034861 a1.110534169163188,1.0282054876782858 0 0 1 -0.3442655924405885,0.2056410975356574 a1.0439021190133961,0.9665131584175888 0 0 1 -0.42200298428201255,0.08225643901426292 a1.110534169163188,1.0282054876782858 0 0 1 -0.9994807522468703,-0.5963591828534064 a1.0439021190133961,0.9665131584175888 0 0 1 0,-0.7608720608819317 a1.110534169163188,1.0282054876782858 0 0 1 0.23321217552426968,-0.3084616463034861 a1.110534169163188,1.0282054876782858 0 0 1 0.3442655924405885,-0.2056410975356574 A1.110534169163188,1.0282054876782858 0 0 1 167.96511716267645,115.47894904098231 zm0,1.7376672741763026 a0.7884792601058639,0.7300258962515838 0 0 0 0.3220549090573255,-0.061692329260697246 a0.8329006268723927,0.7711541157587144 0 0 0 0.25542285890753347,-0.1645128780285261 a0.8217952851807596,0.7608720608819317 0 0 0 0,-1.0282054876782858 a0.8217952851807596,0.7608720608819317 0 0 0 -0.25542285890753347,-0.1645128780285261 a0.7995846017974964,0.7403079511283668 0 0 0 -0.3220549090573255,-0.061692329260697246 a0.8329006268723927,0.7711541157587144 0 0 0 -0.3220549090573255,0.061692329260697246 a0.8106899434891286,0.7505900060051491 0 0 0 -0.2665282005991655,0.1645128780285261 a0.8217952851807596,0.7608720608819317 0 0 0 0,1.0282054876782858 a0.8217952851807596,0.7608720608819317 0 0 0 0.2665282005991655,0.1645128780285261 A0.8217952851807596,0.7608720608819317 0 0 0 167.96511716267645,117.21661631515857 zm0.06663205014979152,-1.2235645303371598 a0.4442136676652762,0.4112821950713154 0 0 1 0.28873888398242914,0.08225643901426292 a0.27763354229079745,0.2570513719195716 0 0 1 0.09994807522468709,0.21592315241244028 a0.2665282005991655,0.24676931704278887 0 0 1 -0.07773739184142318,0.1850769877820919 a0.3886869592071163,0.35987192068740087 0 0 1 -0.23321217552426968,0.09253849389104596 l0.3220549090573255,0.3393078109338345 h-0.25542285890753347 l-0.299844225674061,-0.3393078109338345 h-0.09994807522468709 v0.3393078109338345 h-0.21100149214100605 v-0.9048208291568924 zm-0.24431751721590156,0.17479493290530893 v0.24676931704278887 h0.24431751721590156 a0.23321217552426968,0.21592315241244028 0 0 0 0.13326410029958277,0 a0.11105341691631888,0.10282054876782874 0 0 0 0,-0.09253849389104596 a0.11105341691631888,0.10282054876782874 0 0 0 0,-0.09253849389104596 a0.23321217552426968,0.21592315241244028 0 0 0 -0.13326410029958277,0 zm-12.215875860795064,-4.174514279973838 a3.209443748881612,2.9715138593902455 0 1 1 3.220549090573244,3.1463087922955544 a3.187233065498349,2.9509497496366794 0 0 1 -3.220549090573244,-3.1463087922955544 zm-77.99281470033067,0 V107.0785102066507 H75.23551403755027 v1.1927183657068117 a4.031239034062373,3.732385920272177 0 0 0 -3.3316025074895634,-1.4394876827495997 a5.552670845815938,5.141027438391427 0 0 0 0,10.282054876782857 a4.031239034062373,3.732385920272177 0 0 0 3.3316025074895634,-1.4394876827495997 v1.1927183657068117 h2.30991107185943 zm-8.595534469323072,0 a3.209443748881612,2.9715138593902455 0 1 1 3.220549090573244,3.1463087922955544 A3.187233065498349,2.9509497496366794 0 0 1 68.92767995670339,111.99333243775291 z" id="svg_2"/><g id="_Group_" data-name="&lt;Group&gt;"><rect class="cls-3" x="88.1732406616211" y="32.17374038696289" width="34.98182678222656" height="58.20671463012695" id="svg_3"/><path id="_Path_" data-name="&lt;Path&gt;" class="cls-4" d="M90.3943054466278,61.282237785459884 A39.91259803972497,36.95370522715757 0 0 1 105.66415027262163,32.17374042928762 a39.97923008987476,37.01539755641827 0 1 0 0,58.20671265746773 A39.91259803972497,36.95370522715757 0 0 1 90.3943054466278,61.282237785459884 z"/><path class="cls-5" d="M170.35276562637736,61.282237785459884 A39.97923008987476,37.01539755641827 0 0 1 105.66415027262163,90.38045308675534 a39.97923008987476,37.01539755641827 0 0 0 0,-58.20671265746773 a39.97923008987476,37.01539755641827 0 0 1 64.68861535375568,29.098215301295475 z" id="svg_4"/><path class="cls-5" d="M166.53252808445598,84.21122016068564 V83.01850179497882 h0.5219510595066987 v-0.24676931704278887 h-1.3215356613041933 v0.24676931704278887 H166.29931590893165 v1.1927183657068117 zm2.5653339307669634,0 v-1.4394876827495997 h-0.3997923008987482 l-0.4664243510485399,1.0282054876782858 l-0.4664243510485399,-1.0282054876782858 H167.40985007809488 v1.4394876827495997 h0.28873888398242914 V83.13160439862347 l0.433108325973644,0.9356669937872403 h0.299844225674061 l0.433108325973644,-0.9356669937872403 v1.0898978169389828 z" id="svg_5"/></g></g></g></g></svg>