<svg xmlns="http://www.w3.org/2000/svg" xmlns:xlink="http://www.w3.org/1999/xlink" version="1.1" width="32.55696105957031" height="32.51898956298828" enable-background="new 0 0 404.655 98.179" xml:space="preserve" style=""><rect id="backgroundrect" width="100%" height="100%" x="0" y="0" fill="none" stroke="none" class="" style=""/>

<g class="currentLayer" style=""><title>Layer 1</title><g id="svg_14" class="">
</g><g id="svg_15" class="">
</g><g id="svg_16" class="">
</g><g id="svg_17" class="">
</g><g id="svg_18" class="">
</g><g id="svg_19" class="">
</g>
    <rect fill="#005ea6" rx="2" stroke-dashoffset="" fill-rule="nonzero" id="svg_1" x="0" y="0" width="32" height="32" style="color: rgb(0, 94, 166); border-radius: 5px;" class=""/>
    <rect fill="#005ea6" stroke-dashoffset="" fill-rule="nonzero" id="svg_3" x="21" y="14" width="0" height="0" style="color: rgb(0, 94, 166);"/><g id="svg_10" class="">
	<path opacity="0.68" fill="#FFFFFF" d="M21.766959129075065,11.963554000112005 c0.20001557390153837,-1.2967085417745308 -0.0013356632647849181,-2.178837054874879 -0.69103878161809,-2.978117470516996 C20.316595781426766,8.105684806175837 18.944869608492677,7.728793871017491 17.189808078565324,7.728793871017491 H12.095254470859528 c-0.3586255865947473,0 -0.6641585584142948,0.2653515908344605 -0.7199224997190595,0.6257747689160706 L9.253797832937757,22.033332796500392 c-0.04173947702452842,0.2699353995053041 0.1634517920280527,0.5138958832091549 0.431920108249819,0.5138958832091549 h3.1451530727522377 l-0.21704528052754746,1.399759351522781 c-0.03656378187348683,0.23615103189426342 0.1427490114238862,0.4495527911258165 0.3778257460260283,0.4495527911258165 H15.642776102128215 c0.31371390931635557,0 0.5808465622733326,-0.23207653529795588 0.629765229346082,-0.5473407094371675 l0.026045433663305768,-0.1371747187423175 l0.4993711031214577,-3.2202104766142043 l0.032222876262935816,-0.17791968470538375 c0.048918667072747356,-0.31509440344770245 0.3160513200297273,-0.5475104801286805 0.629765229346082,-0.5475104801286805 h0.39652503173301856 c2.5683135002732596,0 4.579321503315021,-1.060897051263294 5.166846381912276,-4.129332529665083 c0.24559508281232556,-1.2821082623044324 0.11854011474966022,-2.352342701600929 -0.5307591898439015,-3.104766406385522 C22.29638265565418,12.305132631435693 22.051956278198542,12.117026705239546 21.766959129075065,11.963554000112005 L21.766959129075065,11.963554000112005 " id="svg_11"/>
	<path opacity="0.7" fill="#FFFFFF" d="M21.766959129075065,11.963554000112005 c0.20001557390153837,-1.2967085417745308 -0.0013356632647849181,-2.178837054874879 -0.69103878161809,-2.978117470516996 C20.316595781426766,8.105684806175837 18.944869608492677,7.728793871017491 17.189808078565324,7.728793871017491 H12.095254470859528 c-0.3586255865947473,0 -0.6641585584142948,0.2653515908344605 -0.7199224997190595,0.6257747689160706 L9.253797832937757,22.033332796500392 c-0.04173947702452842,0.2699353995053041 0.1634517920280527,0.5138958832091549 0.431920108249819,0.5138958832091549 h3.1451530727522377 l0.7900448211202671,-5.094309140223665 l-0.024542812490422547,0.15975422071351622 c0.055930899212868215,-0.3602534073900969 0.3586255865947473,-0.6257747689160706 0.7174181310975886,-0.6257747689160706 h1.4949411091104965 c2.935787855997204,0 5.2346312926001115,-1.2128418201672226 5.906135998970718,-4.720304306821033 C21.734903210720233,12.163034562639508 21.75176595943814,12.062360542572437 21.766959129075065,11.963554000112005 " id="svg_12"/>
	<path fill="#FFFFFF" d="M14.469729839830878,11.980700839954794 c0.033558539527720914,-0.2166274023702948 0.1704640241681729,-0.3942075456926526 0.3546185968003913,-0.4838464708113923 c0.08364591195715523,-0.04074496596306475 0.17730929840019732,-0.06349423862577576 0.27531359045378934,-0.06349423862577576 h3.9934662037987456 c0.47315871155005257,0 0.914261504745258,0.03157734862137549 1.317464852802203,0.09761814761984212 c0.11520095658769794,0.018844546757917448 0.22739667082962894,0.0405751952715522 0.3364201848177008,0.06519194554090418 c0.10885655607996976,0.024616750269351655 0.21470786981417314,0.05194983160290762 0.3170530674783163,0.08250855607520663 c0.051256077786121,0.01510959154463657 0.10151040812365253,0.031237807238349798 0.15109690682879248,0.04787533500660123 c0.19801207900436227,0.06688965245603164 0.3825005674527774,0.1456632533179569 0.5521298020804613,0.23716965604333878 c0.20001557390153837,-1.2967085417745308 -0.0013356632647849181,-2.178837054874879 -0.69103878161809,-2.978117470516996 C20.316595781426766,8.105684806175837 18.944869608492677,7.728793871017491 17.189808078565324,7.728793871017491 H12.095254470859528 c-0.3586255865947473,0 -0.6641585584142948,0.2653515908344605 -0.7199224997190595,0.6257747689160706 L9.253797832937757,22.033332796500392 c-0.04173947702452842,0.2699353995053041 0.1634517920280527,0.5138958832091549 0.431920108249819,0.5138958832091549 h3.1451530727522377 l0.7900448211202671,-5.094309140223665 L14.469729839830878,11.980700839954794 z" id="svg_13"/>
</g></g></svg>