<?xml version="1.0" encoding="UTF-8" standalone="no"?>
<svg width="32px" height="32px" viewBox="0 0 32 32" version="1.1" xmlns="http://www.w3.org/2000/svg" xmlns:xlink="http://www.w3.org/1999/xlink">
    <!-- Generator: Sketch 49.1 (51147) - http://www.bohemiancoding.com/sketch -->
    <title>neteller</title>
    <desc>Created with Sketch.</desc>
    <defs></defs>
    <g id="Page-1" stroke="none" stroke-width="1" fill="none" fill-rule="evenodd">
        <g id="neteller">
            <rect id="Rectangle-6-Copy" fill="#005ea6" x="0" y="0" width="32" height="32" rx="2"></rect>
            <g id="svg_1">
            <path opacity="0.68" fill="#FFFFFF" d="M23.87453432521852,10.827439166756994 c0.2519808888314084,-1.4452498412364676 -0.0016826770539660003,-2.428428444937003 -0.8705750407956584,-3.319268488474748 C22.04735737924319,6.52764113163556 20.319248044820114,6.107576370239258 18.10821039590879,6.107576370239258 H11.690059442818983 c-0.45179878898987064,0 -0.8367111650845924,0.29574829822631593 -0.9069629320876732,0.6974588786066541 L8.11037434513807,22.05073703047784 c-0.05258365793643748,0.3008571939730279 0.20591760447908908,0.5727639787146886 0.5441356923262551,0.5727639787146886 h3.9622837928264336 l-0.2734350212694747,1.560105386356988 c-0.046063284352319295,0.26320274013615175 0.17983611014261627,0.5010502198997341 0.47598727164063204,0.5010502198997341 H16.159249698152674 c0.3952187730502642,0 0.7317541838434637,-0.25866149947240824 0.7933822309449682,-0.6100399958295853 l0.03281220255233704,-0.15288843567937518 l0.6291108835515381,-3.589093871245525 l0.04059458392692972,-0.1983008423168131 c0.06162804710150481,-0.3511892779961884 0.3981634578947047,-0.610229214190575 0.7933822309449682,-0.610229214190575 h0.49954475039615626 c3.235577640144868,0 5.769058279522425,-1.182425537822295 6.509225848635717,-4.602358194343363 c0.30940224329799826,-1.4289770621913849 0.1493375885394824,-2.621809609868094 -0.6686537943197383,-3.4604253857727842 C24.54150544248429,11.208146509067513 24.233575541608516,10.998492565091341 23.87453432521852,10.827439166756994 L23.87453432521852,10.827439166756994 " id="svg_2"/>
			<path opacity="0.7" fill="#FFFFFF" d="M23.87453432521852,10.827439166756994 c0.2519808888314084,-1.4452498412364676 -0.0016826770539660003,-2.428428444937003 -0.8705750407956584,-3.319268488474748 C22.04735737924319,6.52764113163556 20.319248044820114,6.107576370239258 18.10821039590879,6.107576370239258 H11.690059442818983 c-0.45179878898987064,0 -0.8367111650845924,0.29574829822631593 -0.9069629320876732,0.6974588786066541 L8.11037434513807,22.05073703047784 c-0.05258365793643748,0.3008571939730279 0.20591760447908908,0.5727639787146886 0.5441356923262551,0.5727639787146886 h3.9622837928264336 l0.995303477420888,-5.6778753582066885 l-0.030919190866625257,0.1780544776909554 c0.07046210163482637,-0.40152136201934896 0.45179878898987064,-0.6974588786066541 0.9038079126114866,-0.6974588786066541 h1.8833362926514434 c3.6985241646172637,0 6.594621709124492,-1.3517759709077408 7.440587598005898,-5.261027308947205 C23.834150075923333,11.04977074091945 23.855393873729653,10.937564252852779 23.87453432521852,10.827439166756994 " id="svg_3"/>
			<path fill="#FFFFFF" d="M14.681438575507036,10.846550221216914 c0.042277260980895716,-0.2414426286223797 0.2147516590124107,-0.4393650342172136 0.4467507578279723,-0.5392723288195775 c0.1053776505046208,-0.04541240663743815 0.2233753789139864,-0.07076766701000785 0.34684180774874157,-0.07076766701000785 h5.030994056726589 c0.5960883463674553,0 1.1517924434397262,0.035194615144014584 1.6597505791057117,0.10880055756886226 c0.14513089590456768,0.021003238069815147 0.28647576843771144,0.04522318827644886 0.4238242829676862,0.07265985061990113 c0.13713817989822907,0.027436662343452236 0.2704903364250345,0.057900818462733705 0.399425465685179,0.09196012344081227 c0.06457273194594529,0.016840434128050003 0.12788345610141605,0.034816178422035944 0.19035284172990372,0.05335957779898987 c0.24945687325045932,0.0745520342297944 0.48187664132951263,0.1623493537288415 0.6955766271831945,0.264338050302088 c0.2519808888314084,-1.4452498412364676 -0.0016826770539660003,-2.428428444937003 -0.8705750407956584,-3.319268488474748 C22.04735737924319,6.52764113163556 20.319248044820114,6.107576370239258 18.10821039590879,6.107576370239258 H11.690059442818983 c-0.45179878898987064,0 -0.8367111650845924,0.29574829822631593 -0.9069629320876732,0.6974588786066541 L8.11037434513807,22.05073703047784 c-0.05258365793643748,0.3008571939730279 0.20591760447908908,0.5727639787146886 0.5441356923262551,0.5727639787146886 h3.9622837928264336 l0.995303477420888,-5.6778753582066885 L14.681438575507036,10.846550221216914 z" id="svg_4"/>
        </g>
        </g>
    </g>
</svg>





