<?xml version="1.0" encoding="UTF-8" standalone="no"?>
<svg width="32px" height="32px" viewBox="0 0 32 32" version="1.1" xmlns="http://www.w3.org/2000/svg" xmlns:xlink="http://www.w3.org/1999/xlink">
    <!-- Generator: Sketch 49.1 (51147) - http://www.bohemiancoding.com/sketch -->
    <title>skrill</title>
    <desc>Created with Sketch.</desc>
    <defs></defs>
    <g id="Page-1" stroke="none" stroke-width="1" fill="none" fill-rule="evenodd">
        <g id="skrill">
            <rect id="Rectangle-6-Copy-2" fill="#972772" x="0" y="0" width="32" height="32" rx="2"></rect>
            <path d="M16.3076422,13.888899 C15.7831491,13.8549262 14.5691638,13.776818 14.5691638,12.6899806 C14.5691638,11.3786908 16.3169873,11.3786908 16.9726036,11.3786908 C18.1252617,11.3786908 19.6181395,11.7169664 20.6843556,12.0343357 C20.6843556,12.0343357 21.2792288,12.242818 21.7853237,12.4562365 L21.8323412,12.4690126 L21.8323412,12.4213927 L21.8323412,8.87748398 L21.7678017,8.85861024 C20.5094272,8.42102971 19.0463369,8 16.3339252,8 C11.6570009,8 10,10.708818 10,13.0294176 C10,14.3671306 10.5764751,17.5158521 15.9329626,17.8790991 C16.3867834,17.9066838 17.5917156,17.9757908 17.5917156,19.0986335 C17.5917156,20.0260603 16.6052248,20.5725278 14.9461797,20.5725278 C13.1279761,20.5725278 11.3635067,20.1117181 10.292326,19.6744279 L10.292326,23.3731013 C11.8964687,23.790937 13.7041591,24 15.8234498,24 C20.3964101,24 22.4444444,21.4369454 22.4444444,18.8968296 C22.4444444,16.016696 20.1525617,14.1450012 16.3076422,13.888899 L16.3076422,13.888899 Z" id="Path-Copy" fill="#FFFFFF"></path>
        </g>
    </g>
</svg>