<?xml version="1.0" encoding="utf-8"?>
<!-- Generator: Adobe Illustrator 16.0.0, SVG Export Plug-In . SVG Version: 6.00 Build 0)  -->
<!DOCTYPE svg PUBLIC "-//W3C//DTD SVG 1.1//EN" "http://www.w3.org/Graphics/SVG/1.1/DTD/svg11.dtd">
<svg version="1.1" id="Layer_1" xmlns="http://www.w3.org/2000/svg" xmlns:xlink="http://www.w3.org/1999/xlink" x="0px" y="0px"
	 width="64px" height="40px" viewBox="0 0 64 40" enable-background="new 0 0 64 40" xml:space="preserve">
<g>
	<path fill="#E73530" d="M2.318,48.76"/>
	<path fill="#862165" d="M63.979,37.84c0,1.179-0.954,2.133-2.132,2.133H2.153c-1.178,0-2.132-0.954-2.132-2.133V2.131
		C0.021,0.953,0.976,0,2.153,0h59.693c1.178,0,2.132,0.953,2.132,2.131V37.84z"/>
	<g>
		<path fill="#FFFFFF" d="M43.292,14.737l3.183-0.569v12.218h-3.183V14.737z M47.94,14.737v11.648h3.184V14.168L47.94,14.737z
			 M38.758,26.386h3.186v-8.937h-3.186V26.386z M17.716,18.714c-0.401-0.026-1.333-0.087-1.333-0.926
			c0-1.012,1.34-1.012,1.844-1.012c0.886,0,2.031,0.261,2.849,0.506c0,0,0.455,0.161,0.845,0.325l0.037,0.011v-0.037v-2.735
			l-0.05-0.015c-0.967-0.338-2.089-0.663-4.17-0.663c-3.59,0-4.861,2.09-4.861,3.882c0,1.032,0.442,3.463,4.552,3.743
			c0.349,0.021,1.274,0.075,1.274,0.941c0,0.717-0.757,1.138-2.031,1.138c-1.395,0-2.749-0.355-3.571-0.693v2.854
			c1.231,0.324,2.618,0.484,4.246,0.484c3.509,0,5.081-1.978,5.081-3.938C22.427,20.355,20.668,18.911,17.716,18.714z
			 M36.964,17.318c-2.943,0.095-4.438,1.415-4.438,4.04v5.027h3.211v-4.1c0-1.571,0.206-2.245,2.071-2.31v-2.611
			C37.494,17.298,36.964,17.318,36.964,17.318z M28.326,17.439c-0.07,0.179-0.579,1.618-1.813,3.111v-6.383l-3.286,0.649v11.568
			h3.286V22.81c0.951,1.429,1.421,3.576,1.421,3.576h3.937c-0.39-1.618-2.093-4.602-2.093-4.602
			c1.528-1.938,2.199-4.003,2.307-4.345H28.326z M40.35,16.593c0.867,0,1.57-0.702,1.57-1.569s-0.703-1.57-1.57-1.57
			c-0.865,0-1.568,0.703-1.568,1.57S39.484,16.593,40.35,16.593z"/>
	</g>
</g>
</svg>
