<svg xmlns="http://www.w3.org/2000/svg" width="64" height="40" viewBox="0 0 64 40"><path fill="#045EA0" d="M63.999 37.866c0 1.178-.954 2.134-2.132 2.134h-59.733c-1.179 0-2.134-.956-2.134-2.134v-35.733c0-1.178.955-2.133 2.134-2.133h59.733c1.178 0 2.132.955 2.132 2.133v35.733z"/><g fill-rule="evenodd" clip-rule="evenodd"><path fill="#FAA929" d="M21.553 22.526c4.842-2.075 11.638-3.957 20.637-2.073l.094-2.282c-9.494-1.037-16.307 1.987-20.73 4.13v.225h-.001z"/><path fill="#fff" d="M26.476 16.087l2.099-6.919h1.873l-2.1 6.919h-1.872zm-.837-6.918l-1.685 2.933c-.429.769-.68 1.158-.8 1.643h-.025c.029-.616-.056-1.371-.065-1.798l-.186-2.778h-3.151l-.033.187c.809 0 1.29.406 1.422 1.238l.614 5.493h1.941l3.923-6.918h-1.955zm14.563 6.918l-.052-1.028-2.339-.001-.478 1.03h-2.032l3.685-6.906h2.497l.624 6.906h-1.905v-.001zm-.215-4.08c-.02-.513-.038-1.206-.003-1.626h-.028c-.113.344-.604 1.375-.817 1.882l-.698 1.517h1.643l-.097-1.773zm-7.574 4.278c-1.321 0-2.199-.419-2.825-.793l.892-1.362c.562.315 1.003.677 2.019.677.328 0 .642-.084.82-.395.261-.45-.059-.691-.791-1.106l-.361-.235c-1.084-.741-1.554-1.444-1.043-2.673.328-.786 1.188-1.382 2.609-1.382.98 0 1.899.424 2.435.838l-1.025 1.203c-.522-.423-.955-.637-1.452-.637-.394 0-.694.153-.798.358-.195.387.063.65.633 1.004l.43.274c1.316.83 1.631 1.7 1.301 2.515-.57 1.401-1.681 1.714-2.844 1.714z"/></g><path d="M19.444 24.034c.572-.092 1.316-.153 2.093-.153 1.316 0 2.173.245 2.827.735.714.53 1.164 1.378 1.164 2.593 0 1.316-.48 2.225-1.133 2.786-.725.603-1.837.889-3.185.889-.806 0-1.388-.052-1.766-.103v-6.747zm1.551 5.604c.133.031.358.031.542.031 1.419.01 2.348-.766 2.348-2.409 0-1.429-.837-2.185-2.185-2.185-.337 0-.572.03-.705.062v4.501zm6.694-.826c.041.643.685.949 1.409.949.53 0 .96-.072 1.377-.215l.204 1.052c-.51.214-1.133.316-1.807.316-1.694 0-2.664-.98-2.664-2.542 0-1.266.786-2.664 2.521-2.664 1.613 0 2.226 1.256 2.226 2.491 0 .265-.031.5-.051.612h-3.215zm1.828-1.063c0-.377-.164-1.011-.878-1.011-.654 0-.919.604-.96 1.011h1.838zm2.367-4.185h1.55v2.848h.021c.296-.429.816-.704 1.511-.704 1.193 0 2.062.99 2.051 2.521 0 1.796-1.133 2.694-2.276 2.694-.581 0-1.153-.214-1.5-.807h-.021l-.061.694h-1.317c.02-.327.041-.929.041-1.489v-5.757zm1.55 5.124l.031.275c.102.409.459.735.909.735.662 0 1.071-.511 1.071-1.409 0-.775-.347-1.388-1.071-1.388-.419 0-.808.316-.909.766l-.031.285v.736zm6.154-4.255c0 .429-.316.775-.837.775-.489 0-.807-.347-.807-.775 0-.439.327-.776.827-.776s.808.336.817.776zm-1.602 6.379v-4.992h1.552v4.991h-1.552zm4.531-6.339v1.348h1.113v1.144h-1.113v1.807c0 .603.153.878.613.878.214 0 .315-.011.459-.041l.01 1.174c-.194.071-.572.133-1 .133-.501 0-.919-.174-1.174-.43-.285-.296-.429-.774-.429-1.479v-2.041h-.664v-1.146h.664v-.929l1.521-.418z" fill="#fff"/></svg>
