<?xml version="1.0" encoding="UTF-8" standalone="no"?>
<svg width="32px" height="32px" viewBox="0 0 32 32" version="1.1" xmlns="http://www.w3.org/2000/svg" xmlns:xlink="http://www.w3.org/1999/xlink">
    <!-- Generator: Sketch 49.1 (51147) - http://www.bohemiancoding.com/sketch -->
    <title>webmoney</title>
    <desc>Created with Sketch.</desc>
    <defs></defs>
    <g id="Page-1" stroke="none" stroke-width="1" fill="none" fill-rule="evenodd">
        <g id="webmoney">
            <rect id="Rectangle-6-Copy-3" fill="#0072B7" x="0" y="0" width="32" height="32" rx="2"></rect>
            <g id="Group-6" transform="translate(6.000000, 6.000000)" fill="#FFFFFF">
                <path d="M10.1179012,0.0484254084 C11.6922184,0.0484254084 13.1831762,0.411015656 14.5110574,1.05475342 C14.719658,1.15260476 14.9276515,1.26026125 15.1362521,1.37912361 L14.21323,2.1961523 L12.8264713,0.778008214 L10.4859366,2.84269154 L9.09573826,1.34210419 L4.73576395,5.22894358 L7.53093055,8.27554211 L6.43248976,9.23104345 L9.18557206,12.2822444 L8.09360578,13.2355446 L12.0276788,17.5664169 L14.362953,15.4401013 L16.381988,17.7186968 C15.9803661,18.0274589 15.5429322,18.3180113 15.0609859,18.5865522 C13.6009843,19.4099843 11.9135656,19.8814316 10.1179012,19.8814316 C4.59555038,19.8814316 0.0915182658,15.426294 0.0915182658,9.96522867 C0.0915182658,4.50296267 4.59555038,0.0484254084 10.1179012,0.0484254084" id="Fill-2"></path>
                <polyline id="Fill-3" points="8.29067363 9.33829973 10.6749113 7.21478554 12.8218177 9.57342309 10.4377824 11.6961369 8.29067363 9.33829973"></polyline>
                <polyline id="Fill-4" points="9.98598314 13.4128376 12.3704231 11.2899237 14.5175319 13.647961 12.1332943 15.7714752 9.98598314 13.4128376"></polyline>
                <polyline id="Fill-5" points="6.58464071 5.31138684 8.96887836 3.18847296 11.1151778 5.54651021 8.73094018 7.66942408 6.58464071 5.31138684"></polyline>
                <polyline id="Fill-6" points="10.9597896 4.16858722 12.7479679 2.57655189 14.3578948 4.34507983 12.5697166 5.93771547 10.9597896 4.16858722"></polyline>
                <polyline id="Fill-7" points="14.1369522 11.4622141 15.9257375 9.86957848 17.5356644 11.6385066 15.7474862 13.2307421 14.1369522 11.4622141"></polyline>
                <polyline id="Fill-8" points="15.7102577 15.0344885 17.497829 13.4416527 19.1081606 15.2101807 17.3199823 16.8024161 15.7102577 15.0344885"></polyline>
                <polyline id="Fill-9" points="16.4303444 6.84719266 17.6224633 5.78563567 18.695613 6.96465429 17.5041012 8.02601118 16.4303444 6.84719266"></polyline>
                <polyline id="Fill-10" points="14.9072164 3.34395454 16.0993352 2.28259766 17.1726873 3.46161628 15.9803661 4.52297316 14.9072164 3.34395454"></polyline>
                <polyline id="Fill-11" points="17.9544841 10.3502307 19.146603 9.28867369 20.219955 10.4674922 19.0278362 11.5290492 17.9544841 10.3502307"></polyline>
                <polyline id="Fill-12" points="12.608159 7.72525337 14.3961349 6.13261773 16.0060618 7.90094556 14.2184906 9.49318099 12.608159 7.72525337"></polyline>
            </g>
        </g>
    </g>
</svg>
