<?xml version="1.0" encoding="UTF-8" standalone="no"?>
<svg width="32px" height="32px" viewBox="0 0 32 32" version="1.1" xmlns="http://www.w3.org/2000/svg" xmlns:xlink="http://www.w3.org/1999/xlink">
	<g fill="none" fill-rule="evenodd"><path d="M0 20C0 8.954 8.952 0 20 0c11.046 0 20 8.952 20 20 0 11.046-8.952 20-20 20C8.954 40 0 31.048 0 20z" fill="#D0D5DF" opacity=".2"></path><path d="M35.288 32.896C31.62 37.241 26.133 40 20 40c-6.08 0-11.525-2.712-15.194-6.992.138-.05.278-.1.422-.159l6.206-2.457a1.15 1.15 0 0 0 .29-.14l.035-.131c1.178-.516 2.196-1.246 2.504-1.748.203-.35.426-.485.678-.285.177-.527.344-1.046.523-1.576.057-.21.18-.104.239.042l-.13-.52-.084-.962c-.115-.134-.218-.244-.277-.312-.405-.453-.436-1.669-.639-1.96-.203-.29-.602-.355-1.016-1.727-.404-1.379-.893-3.34-.376-3.367.051-.006.1.006.16.026-.037-.187-.075-.187-.123-.458-.076-.516-.374-1.36-.405-1.853-.056-1.112.233-4.246.87-5.298.634-1.045 1.635-1.927 3.055-2.239 1.243-.28 4.941-.516 6.107 0a9.54 9.54 0 0 1 1.353.722c.802.505 1.606 1.15 2.005 1.804.644 1.046.828 3.9.765 5.012-.04.839-.23 1.986-.328 2.49.146-.131.295-.214.43-.205.516.03.031 1.989-.377 3.37-.413 1.37-.816 1.437-1.012 1.727-.206.292-.24 1.508-.647 1.958a7.4 7.4 0 0 0-.262.296l-.073 1.169c-.037.65.123.06.191.285.04.134.323.974.495 1.436.067.178.036.282.231.173.145-.061.32.053.505.358.012.022.042.054.079.117.357.476 1.335 1.166 2.433 1.663.109.042.22.097.325.135l6.215 2.457.115.045z" fill="#FFF"></path>
</g>
</svg>