<svg xmlns="http://www.w3.org/2000/svg" xmlns:xlink="http://www.w3.org/1999/xlink" viewBox="0 0 24 24" preserveAspectRatio="xMidYMid meet" focusable="false" height="24" width="24"><g class="style-scope yt-icon">
        
        <path d="M24 12.09c0-1.643-.338-3.24-1.003-4.748a.786.786 0 0 0-1.033-.402.778.778 0 0 0-.405 1.026 10.15 10.15 0 0 1 .87 4.123c0 5.708-4.678 10.353-10.429 10.353S1.57 17.797 1.57 12.089c0-1.427.294-2.814.87-4.123a.775.775 0 0 0-.402-1.026.783.783 0 0 0-1.034.4A11.665 11.665 0 0 0 0 12.09C0 18.656 5.382 24 12 24c6.617 0 12-5.343 12-11.91M6.492 8.08a.763.763 0 0 0 0 1.087l4.96 4.922a.775.775 0 0 0 1.095 0l4.96-4.922a.761.761 0 0 0 0-1.086.778.778 0 0 0-1.096 0l-3.637 3.608V.77A.771.771 0 0 0 12 0a.773.773 0 0 0-.776.768V11.69L7.588 8.08a.776.776 0 0 0-1.096 0" fill="#6B758E" fill-rule="evenodd"></path>
      </g></svg>