<svg xmlns="http://www.w3.org/2000/svg" xmlns:xlink="http://www.w3.org/1999/xlink" viewBox="0 0 24 24" preserveAspectRatio="xMidYMid meet" focusable="false" height="24" width="24"><g class="style-scope yt-icon">
        <path d="M19.84 11.65l-7.5-7.5c-.3-.3-.7-.48-1.17-.48H5.33c-.9 0-1.66.75-1.66 1.66v5.84c0 .45.18.87.5 1.18l7.5 7.5c.3.3.7.48 1.16.48.46 0 .88-.18 1.18-.5L19.87 14c.3-.3.5-.7.5-1.16 0-.46-.2-.88-.5-1.18zM6.58 7.83c-.7 0-1.25-.55-1.25-1.25s.56-1.25 1.25-1.25c.7 0 1.25.56 1.25 1.25 0 .7-.55 1.25-1.25 1.25z" fill="#888888"></path>
      </g></svg>