<?xml version="1.0" encoding="utf-8"?>
<!-- Generator: Adobe Illustrator 19.0.0, SVG Export Plug-In . SVG Version: 6.00 Build 0)  -->
<svg version="1.1" id="Layer_1" xmlns="http://www.w3.org/2000/svg" xmlns:xlink="http://www.w3.org/1999/xlink" x="0px" y="0px"
	 viewBox="0 0 167.2 121.9" style="enable-background:new 0 0 167.2 121.9;" xml:space="preserve">
<style type="text/css">
	.st0{fill:#34679A;}
	.st1{font-family:'HelveticaNeue-BoldItalic';}
	.st2{font-size:26.8982px;}
</style>
<rect id="XMLID_14_" x="11.8" y="51.5" class="st0" width="30.5" height="1.5"/>
<rect id="XMLID_13_" x="11.8" y="43" class="st0" width="37.3" height="1.5"/>
<rect id="XMLID_12_" x="11.8" y="34.9" class="st0" width="44.1" height="1.5"/>
<polygon id="XMLID_11_" class="st0" points="120.7,53.7 124.7,34.6 128.6,34.6 126.9,42.7 135.8,34.6 141,34.6 132.5,42.1 
	138.8,53.7 134.3,53.7 129.6,44.6 125.9,47.8 124.6,53.7 120.7,53.7 "/>
<polygon id="XMLID_10_" class="st0" points="116.7,53.7 113.1,53.7 107.9,40.8 105.2,53.7 101.5,53.7 105.5,34.6 109.2,34.6 
	114.4,47.4 117.1,34.6 120.7,34.6 "/>
<path id="XMLID_7_" class="st0" d="M95.9,34.6h-4.4L80.7,53.7h4l2.3-4.2h7.6l0.6,4.2H99L95.9,34.6z M88.4,46.3l4.6-7.7l1.1,7.7H88.4
	z"/>
<path id="XMLID_3_" class="st0" d="M77.1,43.7c1.2-0.4,2.2-1,2.7-1.8c0.6-0.8,0.9-1.7,0.9-2.8c0-0.8-0.2-1.5-0.5-2.2
	c-0.3-0.7-0.8-1.2-1.5-1.6c-0.7-0.4-1.5-0.6-2.4-0.8c-0.6-0.1-1.6-0.1-3-0.1h-6.5l-4,19.1h9c2,0,3.6-0.2,4.7-0.7
	c1.1-0.5,2-1.2,2.7-2.2c0.6-1,1-2.1,1-3.3c0-0.9-0.3-1.6-0.8-2.3C78.8,44.5,78.1,44,77.1,43.7z M75.7,49.3c-0.3,0.5-0.8,0.8-1.3,1
	c-0.5,0.2-1.6,0.3-3.2,0.3h-3.8l1-5h4.7c1.1,0,1.9,0.2,2.3,0.6c0.5,0.4,0.7,0.9,0.7,1.6C76.2,48.3,76,48.8,75.7,49.3z M76.4,41
	c-0.3,0.4-0.7,0.7-1.3,0.9c-0.6,0.2-1.6,0.3-2.9,0.3h-3l1-4.5h3.1c1.1,0,1.8,0,2.1,0.1c0.5,0.1,0.9,0.3,1.2,0.6
	c0.3,0.3,0.4,0.7,0.4,1.2C76.8,40.1,76.7,40.6,76.4,41z"/>
<text id="XMLID_2_" transform="matrix(1 0 0 1 10.7206 84.3722)" class="st0 st1 st2">TRANSFER</text>
</svg>
