<?xml version="1.0" encoding="utf-8"?>
<!-- Generator: Adobe Illustrator 20.1.0, SVG Export Plug-In . SVG Version: 6.00 Build 0)  -->
<svg version="1.1" id="Layer_1" xmlns="http://www.w3.org/2000/svg" xmlns:xlink="http://www.w3.org/1999/xlink" x="0px" y="0px"
	 viewBox="0 0 64 40" style="enable-background:new 0 0 64 40;" xml:space="preserve">
<style type="text/css">
	.st0{fill:#FFFFFF;}
	.st1{fill:#FF5F00;}
	.st2{fill:#EB001B;}
	.st3{fill:#F79E1B;}
</style>
<rect class="st0" width="64" height="40"/>
<g>
	<g>
		<path d="M26.4,36.7v-2.5H27v5.7h-0.6v-0.6C26.1,39.8,25.6,40,25,40c-1.1,0-1.9-0.8-1.9-2c0-1.1,0.8-2,1.9-2
			C25.6,36.1,26.1,36.3,26.4,36.7z M23.7,38c0,0.8,0.5,1.4,1.3,1.4c0.8,0,1.3-0.6,1.3-1.4c0-0.8-0.6-1.4-1.3-1.4
			C24.3,36.6,23.7,37.3,23.7,38z"/>
		<path d="M31.3,38c0,0.1,0,0.2,0,0.2h-3c0.1,0.8,0.7,1.2,1.3,1.2c0.5,0,0.9-0.2,1.2-0.5l0.3,0.4c-0.5,0.4-1,0.6-1.5,0.6
			c-1.1,0-1.9-0.8-1.9-2c0-1.2,0.8-2,1.9-2C30.6,36.1,31.3,36.9,31.3,38z M28.3,37.8h2.4c-0.1-0.7-0.5-1.2-1.2-1.2
			C28.8,36.6,28.4,37.1,28.3,37.8z"/>
		<path d="M35.8,38c0,1.1-0.8,2-1.9,2c-0.6,0-1.1-0.2-1.4-0.6v0.6H32v-5.7h0.6v2.5c0.3-0.4,0.8-0.6,1.4-0.6
			C35,36.1,35.8,36.9,35.8,38z M32.6,38c0,0.8,0.6,1.4,1.3,1.4c0.8,0,1.3-0.6,1.3-1.4c0-0.8-0.5-1.4-1.3-1.4
			C33.1,36.6,32.6,37.2,32.6,38z"/>
		<path d="M37.3,34.8c0,0.2-0.2,0.4-0.4,0.4c-0.2,0-0.4-0.2-0.4-0.4c0-0.2,0.2-0.4,0.4-0.4C37.1,34.4,37.3,34.6,37.3,34.8z
			 M37.1,39.9h-0.6v-3.8h0.6V39.9z"/>
		<path d="M40.7,36.7h-1.6v1.9c0,0.6,0.3,0.8,0.7,0.8c0.3,0,0.6-0.1,0.8-0.3l0.3,0.4c-0.3,0.2-0.7,0.4-1.1,0.4
			c-0.8,0-1.3-0.4-1.3-1.4v-1.9h-0.8v-0.5h0.8V35h0.6v1.2h1.6V36.7z"/>
	</g>
	<g id="Layer_2">
		<g id="Layer_1-2">
			<g id="_Group_">
				<rect x="25" y="3.4" class="st1" width="14" height="25.1"/>
				<path id="_Path_" class="st2" d="M25.9,15.9c0-4.9,2.2-9.5,6.1-12.5C25.1-2,15-0.8,9.6,6.1s-4.2,17,2.7,22.4
					c5.8,4.5,14,4.5,19.7,0C28.2,25.5,25.9,20.9,25.9,15.9z"/>
				<path class="st3" d="M57.8,15.9c0,8.8-7.1,16-16,16c-3.6,0-7-1.2-9.8-3.4c6.9-5.4,8.1-15.5,2.7-22.4c-0.8-1-1.7-1.9-2.7-2.7
					c6.9-5.4,17-4.2,22.4,2.7C56.6,8.9,57.8,12.3,57.8,15.9L57.8,15.9z"/>
				<path class="st3" d="M56.3,25.8v-0.5h0.2v-0.1H56v0.1h0.2L56.3,25.8L56.3,25.8z M57.3,25.8v-0.6h-0.2l-0.2,0.4l-0.2-0.4h-0.1
					v0.6h0.1v-0.5l0.2,0.4H57l0.2-0.4L57.3,25.8L57.3,25.8z"/>
			</g>
		</g>
	</g>
</g>
</svg>
