<?xml version="1.0" encoding="UTF-8"?>
<!DOCTYPE svg PUBLIC "-//W3C//DTD SVG 1.1//EN" "http://www.w3.org/Graphics/SVG/1.1/DTD/svg11.dtd">
<!-- Creator: CorelDRAW -->
<svg xmlns="http://www.w3.org/2000/svg" xml:space="preserve" width="59.002mm" height="42.0686mm" style="shape-rendering:geometricPrecision; text-rendering:geometricPrecision; image-rendering:optimizeQuality; fill-rule:evenodd; clip-rule:evenodd"
viewBox="0 0 59.002 42.0686"
 xmlns:xlink="http://www.w3.org/1999/xlink">
 <defs>
  <style type="text/css">
   <![CDATA[
    .fil0 {fill:#99CC33}
   ]]>
  </style>
 </defs>
 <g id="Layer_x0020_1">
  <metadata id="CorelCorpID_0Corel-Layer"/>
  <path class="fil0" d="M5.198 25.2292l2.6919 0 1.024 -5.3347 1.8268 5.3347 0.1498 0c12.3595,0 24.7191,0 37.0786,0l0.0409 0c0.2709,-1.4115 0.4809,-2.7183 0.7531,-4.1367l1.2115 4.1367 2.692 0 -0.9829 -3.3561c1.6949,-0.4911 1.9033,-1.2867 2.0809,-2.352 0.3695,-2.2162 -1.9272,-2.7043 -4.1852,-2.6809l-0.783 0 -1.909 0 -1.2408 6.4642 -4.199 0 0.2701 -1.4072 2.5467 0 0.3277 -1.7069 -2.5467 0 0.2736 -1.4254 2.5467 0 0.3694 -1.9247 -2.5467 0 -2.6555 0 -0.0364 0 -1.2409 6.4642 -1.9928 0 1.2409 -6.4642 -2.692 0 -1.2408 6.4642 -1.9383 0 1.2408 -6.4642 -2.692 0 -1.2408 6.4642 -4.3352 0 0.2702 -1.4072 2.6011 0 0.3277 -1.7069 -2.6012 0 0.2736 -1.4254 2.7101 0 0.3695 -1.9247c-5.5186,0 -11.0371,0 -16.5556,0l-0.3695 1.9247 -0.6358 3.3125 -1.7934 -5.2372c-0.9646,0 -1.9292,0 -2.8938,0l-1.6103 8.389zm44.3432 -4.3943l-0.7286 0 0.44 -2.2924c0.6936,-0.005 2.0504,0.0303 1.8275,1.1661 -0.1667,0.8493 -0.8127,1.1263 -1.5389,1.1263zm-26.2564 -2.07l-0.8713 4.5395 -1.5298 0 0.8714 -4.5395 1.5297 0zm-6.448 3.1323l0.3277 -1.7069 -2.6148 0 0.2736 -1.4254 4.2398 0 -0.8713 4.5395 -4.2399 0 0.2701 -1.4072 2.6148 0z"/>
 </g>
</svg>
