<svg version="1" xmlns="http://www.w3.org/2000/svg" width="64" height="40" viewBox="0 0 64 40"><path fill="#045EA0" d="M64.047 37.895c0 1.18-.955 2.136-2.134 2.136h-59.778c-1.179-.001-2.135-.957-2.135-2.136v-35.76c0-1.18.956-2.135 2.135-2.135h59.778c1.179 0 2.134.955 2.134 2.135v35.76z"/><g fill-rule="evenodd" clip-rule="evenodd"><path fill="#FAA929" d="M21.57 22.543c4.846-2.077 11.646-3.959 20.652-2.074l.094-2.284c-9.502-1.037-16.319 1.989-20.746 4.134v.224z"/><path fill="#fff" d="M12.82 24.223h4.568v1.377h-2.838l-.019 1.27h2.828v1.318h-2.838l.011 1.271h2.798v1.376h-4.508l-.002-6.612zm5.715-.554h1.661l.008 7.166h-1.663l-.006-7.166zm7.381 6.621c-.563.479-1.423.717-2.188.717-1.749 0-2.542-1.242-2.542-2.475 0-1.452 1.09-2.685 2.591-2.685 1.833 0 2.407 1.299 2.407 2.952h-3.335c0 .372.239 1.003 1.156 1.003.583 0 .907-.172 1.356-.478l.555.966zm-1.223-2.465c0-.497-.239-.945-.793-.945-.525 0-.927.468-1.032.945h1.825zm6.536 2.685c-.458.286-1.212.497-1.767.497-1.53 0-2.628-.879-2.628-2.465 0-1.625 1.088-2.694 2.732-2.694.574 0 1.262.182 1.634.42l-.536 1.089c-.248-.104-.516-.191-.783-.191-.832 0-1.385.497-1.385 1.291 0 .688.536 1.232 1.242 1.232.315 0 .631-.143.897-.277l.594 1.098zm.614-4.49h.751l-.006-1.634h1.605l-.038 1.634h1.365l-.027 1.204h-1.367c0 .668-.048 1.375-.048 1.785 0 .422.105.622.479.622.229 0 .42-.114.611-.229l.362 1.127c-.486.296-1.079.478-1.644.478-1.347 0-1.414-.85-1.414-1.958l.048-1.825h-.716l.039-1.204zm4.53 0h1.662v.678h.02c.248-.41.572-.812 1.223-.812.182 0 .373.019.544.058l-.22 1.643c-.161-.048-.343-.095-.592-.095-.554 0-.984.468-.984.563l-.028 2.78h-1.663l.038-4.815zm6.46-.172c1.776 0 2.693 1.127 2.693 2.579s-.917 2.58-2.693 2.58c-1.778 0-2.695-1.128-2.695-2.58s.917-2.579 2.695-2.579zm0 3.898c.793 0 1.031-.688 1.031-1.319s-.238-1.318-1.031-1.318c-.794 0-1.032.688-1.032 1.318s.239 1.319 1.032 1.319zm3.599-3.726h1.661v.525c.382-.373.966-.697 1.558-.697 1.021 0 1.576.563 1.576 1.882 0 .984-.009 2.044-.02 3.105h-1.662c.009-.927.019-1.864.019-2.856 0-.393-.104-.698-.601-.698-.269 0-.65.229-.87.439l-.009 3.115h-1.692l.04-4.815zm-19.936-9.92l2.101-6.925h1.874l-2.101 6.925h-1.874zm-.837-6.924l-1.687 2.936c-.429.77-.68 1.159-.801 1.644h-.025c.029-.616-.056-1.372-.065-1.799l-.187-2.78h-3.153l-.033.187c.81 0 1.291.406 1.423 1.24l.614 5.497h1.943l3.925-6.923h-1.954v-.002zm14.574 6.924l-.053-1.03-2.34-.001-.478 1.031h-2.034l3.688-6.912h2.498l.624 6.912h-1.905zm-.216-4.084c-.02-.513-.038-1.207-.003-1.627h-.028c-.113.344-.604 1.376-.818 1.884l-.698 1.518h1.644l-.097-1.775zm-7.58 4.281c-1.322 0-2.201-.42-2.827-.794l.893-1.363c.563.315 1.004.677 2.021.677.328 0 .643-.084.821-.394.261-.451-.06-.692-.792-1.108l-.361-.234c-1.085-.742-1.555-1.446-1.044-2.675.328-.787 1.19-1.383 2.612-1.383.98 0 1.9.424 2.437.839l-1.026 1.204c-.523-.423-.957-.638-1.454-.638-.394 0-.694.153-.798.358-.195.387.063.65.633 1.004l.43.274c1.317.831 1.632 1.702 1.302 2.517-.571 1.403-1.683 1.716-2.847 1.716z"/></g></svg>
