<svg xmlns="http://www.w3.org/2000/svg" xmlns:xlink="http://www.w3.org/1999/xlink" xml:space="preserve" width="59.002mm" height="42.0686mm" style="shape-rendering:geometricPrecision; text-rendering:geometricPrecision; image-rendering:optimizeQuality; fill-rule:evenodd; clip-rule:evenodd" viewBox="0 0 59.002 42.0686">
 <defs>
  <style type="text/css">
   <![CDATA[
    .fil0 {fill:#344F95;fill-rule:nonzero}
    .fil1 {fill:#FAA842;fill-rule:nonzero}
   ]]>
  </style>
 </defs>
 <g id="Layer_x0020_1">
  <metadata id="CorelCorpID_0Corel-Layer"/>
  <g id="_436140224">
   <polygon id="_213247648" class="fil0" points="26.2563,28.6859 22.2752,28.6859 24.7635,13.3931 28.745,13.3931 "/>
   <path id="_213246136" class="fil0" d="M18.9255 13.3931l-3.7959 10.5184 -0.4492 -2.2652 0.0006 0.0007 -1.3401 -6.8765c0,0 -0.1618,-1.3774 -1.8888,-1.3774l-6.2745 0 -0.0735 0.2587c0,0 1.9196,0.3989 4.1647,1.7485l3.4591 13.2856 4.1482 0 6.3345 -15.2928 -4.2851 0z"/>
   <path id="_213245776" class="fil0" d="M50.2422 28.6859l3.6557 0 -3.1876 -15.2928 -3.201 0c-1.4781,0 -1.8381,1.1395 -1.8381,1.1395l-5.9373 14.1533 4.1495 0 0.8301 -2.2713 5.0616 0 0.4671 2.2713zm-4.3812 -5.4099l0 0 2.0922 -5.7228 1.1767 5.7228 -3.2689 0z"/>
   <path id="_213246016" class="fil0" d="M40.0449 17.0706l0.5681 -3.2846c0,0 -1.7532,-0.6667 -3.5809,-0.6667 -1.9759,0 -6.6678,0.864 -6.6678,5.0627 0,3.9512 5.5069,4.0005 5.5069,6.0748 0,2.0746 -4.9391,1.7038 -6.5691,0.3952l-0.5926 3.4333c0,0 1.778,0.864 4.4948,0.864 2.7166,0 6.8157,-1.4072 6.8157,-5.2357 0,-3.9761 -5.5564,-4.3462 -5.5564,-6.0749 0,-1.7291 3.8774,-1.5069 5.5813,-0.5681z"/>
   <path id="_215645752" class="fil1" d="M14.681 21.647l-1.3401 -6.8765c0,0 -0.1618,-1.3774 -1.8888,-1.3774l-6.2745 0 -0.0735 0.2587c0,0 3.0162,0.6251 5.9095,2.9672 2.7652,2.238 3.6674,5.028 3.6674,5.028z"/>
  </g>
 </g>
</svg>